<svg width="162" height="137" viewBox="0 0 162 137" fill="none" xmlns="http://www.w3.org/2000/svg">
<g id="Group 13991">
<path id="Ellipse 22" d="M15.8441 12.794C16.2337 12.5221 16.9794 12.2769 18.4502 12.3654C19.9256 12.4542 21.8763 12.8695 24.3036 13.677C29.1464 15.2881 35.4023 18.2945 42.6713 22.5204C57.1787 30.9545 75.3418 44.022 93.6849 59.7282C112.028 75.4345 126.994 90.7336 136.37 102.75C141.068 108.77 144.299 113.887 145.879 117.776C146.671 119.725 147.007 121.267 146.971 122.411C146.935 123.551 146.544 124.1 146.154 124.372C145.765 124.644 145.019 124.889 143.548 124.8C142.073 124.712 140.122 124.296 137.695 123.489C132.852 121.878 126.596 118.871 119.327 114.645C104.82 106.211 86.6565 93.1437 68.3134 77.4375C49.9703 61.7313 35.0043 46.4321 25.6285 34.4162C20.9308 28.3957 17.6991 23.2783 16.119 19.3899C15.3271 17.4409 14.9912 15.8984 15.0272 14.7547C15.0631 13.6145 15.4545 13.066 15.8441 12.794Z" stroke="#0A0A0A" stroke-width="4"/>
<path id="Ellipse 24" d="M80.1667 8.00685C81.8692 7.9941 83.9004 9.12634 86.1064 12.1358C88.2767 15.0965 90.3372 19.5182 92.1274 25.1677C95.6998 36.4418 98.0565 52.1565 98.2916 69.6181C98.5267 87.0798 96.5936 102.827 93.3254 114.152C91.6877 119.827 89.7467 124.279 87.6565 127.271C85.532 130.313 83.5316 131.476 81.8292 131.488C80.1268 131.501 78.0955 130.369 75.8895 127.36C73.7192 124.399 71.6587 119.977 69.8685 114.328C66.2961 103.054 63.9394 87.3388 63.7043 69.8772C63.4692 52.4156 65.4024 36.6687 68.6705 25.3434C70.3082 19.6682 72.2493 15.2166 74.3394 12.2239C76.4639 9.18204 78.4643 8.0196 80.1667 8.00685Z" stroke="#0A0A0A" stroke-width="4"/>
<path id="Ellipse 23" d="M17.062 126.03C16.6448 125.758 16.2298 125.21 16.1429 124.073C16.0555 122.932 16.3212 121.382 17.0235 119.414C18.425 115.486 21.4199 110.285 25.8392 104.139C34.6593 91.8737 48.914 76.1742 66.5237 59.9761C84.1334 43.7781 101.681 30.2246 115.786 21.4031C122.853 16.983 128.962 13.8107 133.721 12.0713C136.106 11.1997 138.033 10.7326 139.501 10.6044C140.962 10.4768 141.731 10.6998 142.148 10.9716C142.565 11.2435 142.98 11.7918 143.067 12.9283C143.154 14.0702 142.889 15.6199 142.187 17.5881C140.785 21.5156 137.79 26.717 133.371 32.8627C124.551 45.1281 110.296 60.8277 92.6863 77.0257C75.0766 93.2237 57.5288 106.777 43.4241 115.599C36.3569 120.019 30.2483 123.191 25.489 124.931C23.104 125.802 21.1771 126.269 19.709 126.397C18.2478 126.525 17.4791 126.302 17.062 126.03Z" stroke="#0A0A0A" stroke-width="4"/>
<circle id="Ellipse 25" cx="80.957" cy="68.168" r="5" stroke="#0A0A0A" stroke-width="2"/>
<circle id="Ellipse 32" cx="28" cy="82" r="5" stroke="#0A0A0A" stroke-width="2"/>
<circle id="Ellipse 28" cx="112" cy="9" r="5" stroke="#0A0A0A" stroke-width="2"/>
<circle id="Ellipse 30" cx="39.8516" cy="20.9648" r="6" fill="url(#paint0_linear_295_7443)"/>
<circle id="Ellipse 33" cx="118.434" cy="52.0508" r="6" fill="url(#paint1_linear_295_7443)"/>
<circle id="Ellipse 34" cx="44.6875" cy="116.52" r="6" fill="url(#paint2_linear_295_7443)"/>
<circle id="Ellipse 29" cx="118" cy="127" r="5" stroke="#0A0A0A" stroke-width="2"/>
</g>
<defs>
<linearGradient id="paint0_linear_295_7443" x1="34.0402" y1="21.1765" x2="45.9224" y2="21.1736" gradientUnits="userSpaceOnUse">
<stop stop-color="#0439C2"/>
<stop offset="0.473958" stop-color="#1FA1D8"/>
<stop offset="1" stop-color="#15E6CD"/>
</linearGradient>
<linearGradient id="paint1_linear_295_7443" x1="112.622" y1="52.2624" x2="124.504" y2="52.2595" gradientUnits="userSpaceOnUse">
<stop stop-color="#0439C2"/>
<stop offset="0.473958" stop-color="#1FA1D8"/>
<stop offset="1" stop-color="#15E6CD"/>
</linearGradient>
<linearGradient id="paint2_linear_295_7443" x1="38.8761" y1="116.731" x2="50.7584" y2="116.728" gradientUnits="userSpaceOnUse">
<stop stop-color="#0439C2"/>
<stop offset="0.473958" stop-color="#1FA1D8"/>
<stop offset="1" stop-color="#15E6CD"/>
</linearGradient>
</defs>
</svg>
