<svg width="1440" height="896" viewBox="0 0 1440 896" fill="none" xmlns="http://www.w3.org/2000/svg">
<g filter="url(#filter0_i_388_43842)">
<path fill-rule="evenodd" clip-rule="evenodd" d="M702.829 1.70561C597.965 14.5999 582.729 105.595 511.445 152.371C473.888 177.016 415.661 186.515 381.072 212.84C349.132 237.149 366.029 287.111 318.657 299.099C205.717 327.678 20.898 262.719 -51.9082 322.404C-105.201 366.093 77.04 419.108 102.073 476.651C125.048 529.464 40.3837 583.762 83.1424 632.844C124.981 680.87 238.527 681.203 309.091 714.286C375.696 745.513 408.341 819.709 487.282 822.318C581.112 825.419 609.344 714.63 702.861 727.299C831.323 744.702 891.19 917.175 1009.14 893.015C1122.33 869.832 965.686 733.134 1009.72 664.447C1035.68 623.957 1133.43 627.179 1193.41 605.611C1293.37 569.662 1515.9 568.738 1485.2 493.465C1449.25 405.34 1186.15 437.564 1094.56 363.263C1036.65 316.289 1157.94 254.184 1123.52 200.064C1092.86 151.856 995.335 132.978 927.868 101.167C853.808 66.2472 786.907 -8.63276 702.829 1.70561Z" fill="url(#paint0_linear_388_43842)" fill-opacity="0.9"/>
</g>
<defs>
<filter id="filter0_i_388_43842" x="-61.6201" y="0.734375" width="1549.7" height="898.598" filterUnits="userSpaceOnUse" color-interpolation-filters="sRGB">
<feFlood flood-opacity="0" result="BackgroundImageFix"/>
<feBlend mode="normal" in="SourceGraphic" in2="BackgroundImageFix" result="shape"/>
<feColorMatrix in="SourceAlpha" type="matrix" values="0 0 0 0 0 0 0 0 0 0 0 0 0 0 0 0 0 0 127 0" result="hardAlpha"/>
<feOffset dy="4"/>
<feGaussianBlur stdDeviation="2"/>
<feComposite in2="hardAlpha" operator="arithmetic" k2="-1" k3="1"/>
<feColorMatrix type="matrix" values="0 0 0 0 0.0392157 0 0 0 0 0.0392157 0 0 0 0 0.0392157 0 0 0 0.75 0"/>
<feBlend mode="normal" in2="shape" result="effect1_innerShadow_388_43842"/>
</filter>
<linearGradient id="paint0_linear_388_43842" x1="-9.49995" y1="795.001" x2="1207.62" y2="482.783" gradientUnits="userSpaceOnUse">
<stop stop-color="#0439C2"/>
<stop offset="0.526067" stop-color="#1FA1D8"/>
<stop offset="1" stop-color="#15E6CD"/>
</linearGradient>
</defs>
</svg>
