<svg width="898" height="199" viewBox="0 0 898 199" fill="none" xmlns="http://www.w3.org/2000/svg">
<mask id="path-1-outside-1_388_43845" maskUnits="userSpaceOnUse" x="-3" y="-3" width="907" height="205" fill="black">
<rect fill="white" x="-3" y="-3" width="907" height="205"/>
<path d="M105.564 54.72C104.604 62.72 101.804 69.76 97.1639 75.84C92.6039 81.92 86.5239 86.64 78.9239 90C71.4039 93.36 62.7639 95.04 53.0039 95.04C42.4439 95.04 33.2039 93.08 25.2839 89.16C17.3639 85.24 11.2039 79.76 6.80391 72.72C2.40391 65.68 0.203906 57.44 0.203906 48C0.203906 38.56 2.40391 30.32 6.80391 23.28C11.2039 16.24 17.3639 10.76 25.2839 6.83999C33.2039 2.92 42.4439 0.959998 53.0039 0.959998C62.7639 0.959998 71.4039 2.64 78.9239 6C86.5239 9.36 92.6039 14.08 97.1639 20.16C101.804 26.16 104.604 33.2 105.564 41.28H77.4839C76.6839 37.84 75.2039 34.92 73.0439 32.52C70.9639 30.04 68.2439 28.16 64.8839 26.88C61.5239 25.52 57.5639 24.84 53.0039 24.84C47.8839 24.84 43.4839 25.76 39.8039 27.6C36.1239 29.44 33.2839 32.12 31.2839 35.64C29.2839 39.08 28.2839 43.2 28.2839 48C28.2839 52.8 29.2839 56.92 31.2839 60.36C33.2839 63.8 36.1239 66.48 39.8039 68.4C43.4839 70.24 47.8839 71.16 53.0039 71.16C57.5639 71.16 61.5239 70.56 64.8839 69.36C68.2439 68.08 70.9639 66.2 73.0439 63.72C75.2039 61.24 76.6839 58.24 77.4839 54.72H105.564ZM131.408 76.8V54.48H193.088V76.8H131.408ZM181.208 2.99999L221.528 93H191.648L159.008 15.12H166.568L133.808 93H104.048L144.248 2.99999H181.208ZM248.475 41.88H279.915C283.435 41.88 286.155 41.08 288.075 39.48C290.075 37.88 291.075 35.56 291.075 32.52C291.075 29.48 290.075 27.16 288.075 25.56C286.155 23.96 283.435 23.16 279.915 23.16H244.515L257.115 10.2V93H229.155V2.99999H284.115C291.075 2.99999 297.195 4.23999 302.475 6.72C307.755 9.2 311.875 12.64 314.835 17.04C317.795 21.44 319.275 26.6 319.275 32.52C319.275 38.28 317.795 43.4 314.835 47.88C311.875 52.28 307.755 55.72 302.475 58.2C297.195 60.6 291.075 61.8 284.115 61.8H248.475V41.88ZM260.475 50.88H291.555L322.515 93H290.475L260.475 50.88ZM411.349 38.16V57.84H344.509V38.16H411.349ZM363.589 48L357.949 82.8L347.029 70.68H415.549V93H330.229L336.949 48L330.229 2.99999H414.949V25.32H347.029L357.949 13.2L363.589 48ZM442.637 39H508.277V62.4H442.637V39ZM510.557 2.99999V26.4H443.957L457.037 13.56V93H429.077V2.99999H510.557ZM549.587 52.2C549.587 55.96 550.267 59.16 551.627 61.8C552.987 64.44 555.027 66.52 557.747 68.04C560.467 69.48 563.867 70.2 567.947 70.2C572.187 70.2 575.667 69.48 578.387 68.04C581.107 66.6 583.107 64.56 584.387 61.92C585.747 59.2 586.427 55.96 586.427 52.2V2.99999H614.387V53.76C614.387 62 612.467 69.24 608.627 75.48C604.787 81.64 599.387 86.44 592.427 89.88C585.467 93.32 577.307 95.04 567.947 95.04C558.747 95.04 550.667 93.32 543.707 89.88C536.747 86.44 531.307 81.64 527.387 75.48C523.547 69.24 521.627 62 521.627 53.76V2.99999H549.587V52.2ZM656.842 2.99999V80.64L644.242 68.16H711.322V93H628.882V2.99999H656.842ZM749.537 2.99999V80.64L736.937 68.16H804.017V93H721.577V2.99999H749.537ZM827.625 93V48.84H855.585V93H827.625ZM785.505 2.99999H816.225L847.545 43.08H835.545L866.745 2.99999H897.465L850.545 62.88L832.545 63.24L785.505 2.99999ZM189.47 157.72C188.51 165.72 185.71 172.76 181.07 178.84C176.51 184.92 170.43 189.64 162.83 193C155.31 196.36 146.67 198.04 136.91 198.04C126.35 198.04 117.11 196.08 109.19 192.16C101.27 188.24 95.1102 182.76 90.7102 175.72C86.3102 168.68 84.1102 160.44 84.1102 151C84.1102 141.56 86.3102 133.32 90.7102 126.28C95.1102 119.24 101.27 113.76 109.19 109.84C117.11 105.92 126.35 103.96 136.91 103.96C146.67 103.96 155.31 105.64 162.83 109C170.43 112.36 176.51 117.08 181.07 123.16C185.71 129.16 188.51 136.2 189.47 144.28H161.39C160.59 140.84 159.11 137.92 156.95 135.52C154.87 133.04 152.15 131.16 148.79 129.88C145.43 128.52 141.47 127.84 136.91 127.84C131.79 127.84 127.39 128.76 123.71 130.6C120.03 132.44 117.19 135.12 115.19 138.64C113.19 142.08 112.19 146.2 112.19 151C112.19 155.8 113.19 159.92 115.19 163.36C117.19 166.8 120.03 169.48 123.71 171.4C127.39 173.24 131.79 174.16 136.91 174.16C141.47 174.16 145.43 173.56 148.79 172.36C152.15 171.08 154.87 169.2 156.95 166.72C159.11 164.24 160.59 161.24 161.39 157.72H189.47ZM220.116 144.88H251.556C255.076 144.88 257.796 144.08 259.716 142.48C261.716 140.88 262.716 138.56 262.716 135.52C262.716 132.48 261.716 130.16 259.716 128.56C257.796 126.96 255.076 126.16 251.556 126.16H216.156L228.756 113.2V196H200.796V106H255.756C262.716 106 268.836 107.24 274.116 109.72C279.396 112.2 283.516 115.64 286.476 120.04C289.436 124.44 290.916 129.6 290.916 135.52C290.916 141.28 289.436 146.4 286.476 150.88C283.516 155.28 279.396 158.72 274.116 161.2C268.836 163.6 262.716 164.8 255.756 164.8H220.116V144.88ZM232.116 153.88H263.196L294.156 196H262.116L232.116 153.88ZM322.306 179.8V157.48H383.986V179.8H322.306ZM372.106 106L412.426 196H382.546L349.906 118.12H357.466L324.706 196H294.946L335.146 106H372.106ZM433.614 142H499.254V165.4H433.614V142ZM501.534 106V129.4H434.934L448.014 116.56V196H420.054V106H501.534ZM541.764 118.12H569.724V196H541.764V118.12ZM508.404 106H603.084V130.84H508.404V106ZM691.896 141.16V160.84H625.056V141.16H691.896ZM644.136 151L638.496 185.8L627.576 173.68H696.096V196H610.776L617.496 151L610.776 106H695.496V128.32H627.576L638.496 116.2L644.136 151ZM755.944 106C766.744 106 776.184 107.88 784.264 111.64C792.424 115.32 798.744 120.52 803.224 127.24C807.784 133.96 810.064 141.88 810.064 151C810.064 160.04 807.784 167.96 803.224 174.76C798.744 181.48 792.424 186.72 784.264 190.48C776.184 194.16 766.744 196 755.944 196H709.624V106H755.944ZM737.344 183.88L724.504 171.16H758.104C762.984 171.16 767.184 170.36 770.704 168.76C774.304 167.08 777.064 164.72 778.984 161.68C780.904 158.64 781.864 155.08 781.864 151C781.864 146.84 780.904 143.28 778.984 140.32C777.064 137.28 774.304 134.96 770.704 133.36C767.184 131.68 762.984 130.84 758.104 130.84H724.504L737.344 118.12V183.88Z"/>
</mask>
<path d="M105.564 54.72L108.543 55.0774L108.945 51.72H105.564V54.72ZM97.1639 75.84L94.7791 74.02L94.7715 74.03L94.7639 74.04L97.1639 75.84ZM78.9239 90L77.7108 87.2562L77.7001 87.261L78.9239 90ZM25.2839 89.16L26.6147 86.4713L25.2839 89.16ZM6.80389 72.72L9.3479 71.13L6.80389 72.72ZM6.80389 23.28L4.25992 21.69L6.80389 23.28ZM25.2839 6.83999L23.9532 4.1513V4.1513L25.2839 6.83999ZM78.9239 6L77.7001 8.73904L77.7108 8.74381L78.9239 6ZM97.1639 20.16L94.7639 21.96L94.7772 21.9777L94.7907 21.9952L97.1639 20.16ZM105.564 41.28V44.28H108.941L108.543 40.926L105.564 41.28ZM77.4839 41.28L74.5619 41.9595L75.1015 44.28H77.4839V41.28ZM73.0439 32.52L70.7453 34.4478L70.779 34.488L70.814 34.5269L73.0439 32.52ZM64.8839 26.88L63.7583 29.6608L63.787 29.6725L63.8159 29.6835L64.8839 26.88ZM39.8039 27.6L41.1455 30.2833L39.8039 27.6ZM31.2839 35.64L33.8774 37.1479L33.8849 37.135L33.8923 37.122L31.2839 35.64ZM31.2839 60.36L28.6904 61.8679H28.6904L31.2839 60.36ZM39.8039 68.4L38.4162 71.0598L38.4391 71.0717L38.4623 71.0833L39.8039 68.4ZM64.8839 69.36L65.8929 72.1852L65.9225 72.1747L65.9519 72.1635L64.8839 69.36ZM73.0439 63.72L70.7817 61.7497L70.7633 61.7707L70.7453 61.7922L73.0439 63.72ZM77.4839 54.72V51.72H75.0892L74.5585 54.0551L77.4839 54.72ZM102.585 54.3626C101.686 61.8604 99.0765 68.3889 94.7791 74.02L99.5488 77.66C104.531 71.1311 107.522 63.5796 108.543 55.0774L102.585 54.3626ZM94.7639 74.04C90.5405 79.6713 84.886 84.084 77.7108 87.2562L80.137 92.7438C88.1619 89.196 94.6674 84.1687 99.5639 77.64L94.7639 74.04ZM77.7001 87.261C70.6297 90.4201 62.4191 92.04 53.0039 92.04V98.04C63.1087 98.04 72.1781 96.2999 80.1477 92.739L77.7001 87.261ZM53.0039 92.04C42.8164 92.04 34.0479 90.1504 26.6147 86.4713L23.9532 91.8487C32.36 96.0096 42.0714 98.04 53.0039 98.04V92.04ZM26.6147 86.4713C19.1596 82.7814 13.434 77.6677 9.3479 71.13L4.25992 74.31C8.97388 81.8523 15.5682 87.6986 23.9532 91.8487L26.6147 86.4713ZM9.3479 71.13C5.28516 64.6296 3.20392 56.9567 3.20392 48H-2.79608C-2.79608 57.9233 -0.477356 66.7304 4.25992 74.31L9.3479 71.13ZM3.20392 48C3.20392 39.0433 5.28516 31.3704 9.3479 24.87L4.25992 21.69C-0.477356 29.2696 -2.79608 38.0767 -2.79608 48H3.20392ZM9.3479 24.87C13.434 18.3323 19.1596 13.2186 26.6147 9.52868L23.9532 4.1513C15.5682 8.30142 8.97388 14.1477 4.25992 21.69L9.3479 24.87ZM26.6147 9.52869C34.0479 5.84964 42.8164 3.96 53.0039 3.96V-2.04C42.0714 -2.04 32.36 -0.00964642 23.9532 4.1513L26.6147 9.52869ZM53.0039 3.96C62.4191 3.96 70.6297 5.57991 77.7001 8.73902L80.1477 3.26097C72.1781 -0.299917 63.1087 -2.04 53.0039 -2.04V3.96ZM77.7108 8.74381C84.886 11.916 90.5405 16.3287 94.7639 21.96L99.5639 18.36C94.6674 11.8313 88.1619 6.80404 80.137 3.25619L77.7108 8.74381ZM94.7907 21.9952C99.0741 27.5341 101.684 34.0527 102.585 41.6339L108.543 40.926C107.524 32.3473 104.534 24.7859 99.5371 18.3248L94.7907 21.9952ZM105.564 38.28H77.4839V44.28H105.564V38.28ZM80.4059 40.6005C79.5021 36.7141 77.8041 33.3246 75.2738 30.5131L70.814 34.5269C72.6037 36.5154 73.8657 38.9659 74.5619 41.9595L80.4059 40.6005ZM75.3425 30.5922C72.8983 27.678 69.7359 25.5181 65.9519 24.0765L63.8159 29.6835C66.7519 30.8019 69.0295 32.402 70.7453 34.4478L75.3425 30.5922ZM66.0095 24.0992C62.2126 22.5623 57.8539 21.84 53.0039 21.84V27.84C57.2739 27.84 60.8351 28.4776 63.7583 29.6608L66.0095 24.0992ZM53.0039 21.84C47.5295 21.84 42.6482 22.8238 38.4623 24.9167L41.1455 30.2833C44.3196 28.6962 48.2383 27.84 53.0039 27.84V21.84ZM38.4623 24.9167C34.2595 27.0181 30.9744 30.1119 28.6755 34.158L33.8923 37.122C35.5934 34.128 37.9883 31.8619 41.1455 30.2833L38.4623 24.9167ZM28.6904 34.1321C26.3741 38.1161 25.2839 42.7796 25.2839 48H31.2839C31.2839 43.6204 32.1937 40.0439 33.8774 37.1479L28.6904 34.1321ZM25.2839 48C25.2839 53.2204 26.3741 57.8839 28.6904 61.8679L33.8774 58.8521C32.1937 55.9561 31.2839 52.3796 31.2839 48H25.2839ZM28.6904 61.8679C30.988 65.8198 34.2563 68.8894 38.4162 71.0598L41.1916 65.7402C37.9915 64.0706 35.5798 61.7802 33.8774 58.8521L28.6904 61.8679ZM38.4623 71.0833C42.6482 73.1762 47.5295 74.16 53.0039 74.16V68.16C48.2383 68.16 44.3196 67.3038 41.1455 65.7167L38.4623 71.0833ZM53.0039 74.16C57.8167 74.16 62.1332 73.528 65.8929 72.1852L63.8749 66.5348C60.9146 67.592 57.3111 68.16 53.0039 68.16V74.16ZM65.9519 72.1635C69.7359 70.7219 72.8983 68.562 75.3425 65.6478L70.7453 61.7922C69.0295 63.838 66.7519 65.4381 63.8159 66.5565L65.9519 72.1635ZM75.3062 65.6903C77.8226 62.8011 79.5104 59.3399 80.4093 55.3849L74.5585 54.0551C73.8574 57.1401 72.5852 59.6789 70.7817 61.7497L75.3062 65.6903ZM77.4839 57.72H105.564V51.72H77.4839V57.72ZM131.408 76.8H128.408V79.8H131.408V76.8ZM131.408 54.48V51.48H128.408V54.48H131.408ZM193.088 54.48H196.088V51.48H193.088V54.48ZM193.088 76.8V79.8H196.088V76.8H193.088ZM181.208 2.99999L183.946 1.77345L183.151 -7.15256e-06H181.208V2.99999ZM221.528 93V96H226.159L224.266 91.7735L221.528 93ZM191.648 93L188.881 94.1596L189.652 96H191.648V93ZM159.008 15.12V12.12H154.498L156.241 16.2796L159.008 15.12ZM166.568 15.12L169.333 16.2832L171.085 12.12H166.568V15.12ZM133.808 93V96H135.801L136.573 94.1632L133.808 93ZM104.048 93L101.309 91.7765L99.4223 96H104.048V93ZM144.248 2.99999V-7.15256e-06H142.302L141.509 1.7765L144.248 2.99999ZM134.408 76.8V54.48H128.408V76.8H134.408ZM131.408 57.48H193.088V51.48H131.408V57.48ZM190.088 54.48V76.8H196.088V54.48H190.088ZM193.088 73.8H131.408V79.8H193.088V73.8ZM178.47 4.22653L218.79 94.2265L224.266 91.7735L183.946 1.77345L178.47 4.22653ZM221.528 90H191.648V96H221.528V90ZM194.415 91.8404L161.775 13.9604L156.241 16.2796L188.881 94.1596L194.415 91.8404ZM159.008 18.12H166.568V12.12H159.008V18.12ZM163.803 13.9568L131.043 91.8368L136.573 94.1632L169.333 16.2832L163.803 13.9568ZM133.808 90H104.048V96H133.808V90ZM106.787 94.2235L146.987 4.22349L141.509 1.7765L101.309 91.7765L106.787 94.2235ZM144.248 5.99999H181.208V-7.15256e-06H144.248V5.99999ZM248.475 41.88V38.88H245.475V41.88H248.475ZM288.076 39.48L286.201 37.1374L286.178 37.1561L286.155 37.1753L288.076 39.48ZM288.076 25.56L286.155 27.8647L286.178 27.8839L286.201 27.9026L288.076 25.56ZM244.515 23.16L242.365 21.0688L237.415 26.16H244.515V23.16ZM257.115 10.2H260.115V2.8106L254.964 8.10876L257.115 10.2ZM257.115 93V96H260.115V93H257.115ZM229.155 93H226.155V96H229.155V93ZM229.155 2.99999V-7.15256e-06H226.155V2.99999H229.155ZM302.475 6.72L303.751 4.00461L302.475 6.72ZM314.835 47.88L317.325 49.5545L317.332 49.5442L317.339 49.5338L314.835 47.88ZM302.475 58.2L303.717 60.9311L303.734 60.9233L303.751 60.9154L302.475 58.2ZM248.475 61.8H245.475V64.8H248.475V61.8ZM260.475 50.88V47.88H254.656L258.032 52.6204L260.475 50.88ZM291.555 50.88L293.973 49.1032L293.074 47.88H291.555V50.88ZM322.516 93V96H328.444L324.933 91.2232L322.516 93ZM290.475 93L288.032 94.7404L288.929 96H290.475V93ZM248.475 44.88H279.915V38.88H248.475V44.88ZM279.915 44.88C283.854 44.88 287.354 43.9867 289.996 41.7847L286.155 37.1753C284.957 38.1733 283.016 38.88 279.915 38.88V44.88ZM289.95 41.8226C292.797 39.5444 294.076 36.2814 294.076 32.52H288.076C288.076 34.8386 287.354 36.2156 286.201 37.1374L289.95 41.8226ZM294.076 32.52C294.076 28.7586 292.797 25.4956 289.95 23.2174L286.201 27.9026C287.354 28.8243 288.076 30.2014 288.076 32.52H294.076ZM289.996 23.2553C287.354 21.0533 283.854 20.16 279.915 20.16V26.16C283.016 26.16 284.957 26.8667 286.155 27.8647L289.996 23.2553ZM279.915 20.16H244.515V26.16H279.915V20.16ZM246.666 25.2512L259.266 12.2912L254.964 8.10876L242.365 21.0688L246.666 25.2512ZM254.115 10.2V93H260.115V10.2H254.115ZM257.115 90H229.155V96H257.115V90ZM232.155 93V2.99999H226.155V93H232.155ZM229.155 5.99999H284.115V-7.15256e-06H229.155V5.99999ZM284.115 5.99999C290.719 5.99999 296.389 7.17554 301.2 9.43538L303.751 4.00461C298.002 1.30444 291.432 -7.15256e-06 284.115 -7.15256e-06V5.99999ZM301.2 9.43538C306.039 11.7084 309.719 14.8092 312.346 18.7145L317.325 15.3655C314.032 10.4708 309.472 6.69158 303.751 4.00461L301.2 9.43538ZM312.346 18.7145C314.935 22.563 316.275 27.1245 316.275 32.52H322.275C322.275 26.0755 320.656 20.317 317.325 15.3655L312.346 18.7145ZM316.275 32.52C316.275 37.7368 314.944 42.273 312.332 46.2262L317.339 49.5338C320.646 44.527 322.275 38.8232 322.275 32.52H316.275ZM312.346 46.2055C309.719 50.1108 306.039 53.2116 301.2 55.4846L303.751 60.9154C309.472 58.2284 314.032 54.4492 317.325 49.5545L312.346 46.2055ZM301.234 55.4689C296.414 57.6599 290.731 58.8 284.115 58.8V64.8C291.419 64.8 297.977 63.5401 303.717 60.9311L301.234 55.4689ZM284.115 58.8H248.475V64.8H284.115V58.8ZM251.475 61.8V41.88H245.475V61.8H251.475ZM260.475 53.88H291.555V47.88H260.475V53.88ZM289.138 52.6568L320.098 94.7768L324.933 91.2232L293.973 49.1032L289.138 52.6568ZM322.516 90H290.475V96H322.516V90ZM292.919 91.2596L262.919 49.1396L258.032 52.6204L288.032 94.7404L292.919 91.2596ZM411.349 38.16H414.349V35.16H411.349V38.16ZM411.349 57.84V60.84H414.349V57.84H411.349ZM344.509 57.84H341.509V60.84H344.509V57.84ZM344.509 38.16V35.16H341.509V38.16H344.509ZM363.589 48L366.551 48.4799L366.628 48L366.551 47.5201L363.589 48ZM357.949 82.8L355.72 84.8081L359.909 89.4574L360.911 83.2799L357.949 82.8ZM347.029 70.68V67.68H340.288L344.8 72.6881L347.029 70.68ZM415.549 70.68H418.549V67.68H415.549V70.68ZM415.549 93V96H418.549V93H415.549ZM330.229 93L327.262 92.5569L326.748 96H330.229V93ZM336.949 48L339.916 48.4431L339.982 48L339.916 47.5569L336.949 48ZM330.229 2.99999V-7.15256e-06H326.748L327.262 3.44308L330.229 2.99999ZM414.949 2.99999H417.949V-7.15256e-06H414.949V2.99999ZM414.949 25.32V28.32H417.949V25.32H414.949ZM347.029 25.32L344.8 23.3119L340.288 28.32H347.029V25.32ZM357.949 13.2L360.911 12.7201L359.909 6.54259L355.72 11.1919L357.949 13.2ZM408.349 38.16V57.84H414.349V38.16H408.349ZM411.349 54.84H344.509V60.84H411.349V54.84ZM347.509 57.84V38.16H341.509V57.84H347.509ZM344.509 41.16H411.349V35.16H344.509V41.16ZM360.628 47.5201L354.988 82.3201L360.911 83.2799L366.551 48.4799L360.628 47.5201ZM360.178 80.7919L349.258 68.6719L344.8 72.6881L355.72 84.8081L360.178 80.7919ZM347.029 73.68H415.549V67.68H347.029V73.68ZM412.549 70.68V93H418.549V70.68H412.549ZM415.549 90H330.229V96H415.549V90ZM333.196 93.4431L339.916 48.4431L333.982 47.5569L327.262 92.5569L333.196 93.4431ZM339.916 47.5569L333.196 2.55691L327.262 3.44308L333.982 48.4431L339.916 47.5569ZM330.229 5.99999H414.949V-7.15256e-06H330.229V5.99999ZM411.949 2.99999V25.32H417.949V2.99999H411.949ZM414.949 22.32H347.029V28.32H414.949V22.32ZM349.258 27.3281L360.178 15.2081L355.72 11.1919L344.8 23.3119L349.258 27.3281ZM354.988 13.6799L360.628 48.4799L366.551 47.5201L360.911 12.7201L354.988 13.6799ZM442.637 39V36H439.637V39H442.637ZM508.277 39H511.277V36H508.277V39ZM508.277 62.4V65.4H511.277V62.4H508.277ZM442.637 62.4H439.637V65.4H442.637V62.4ZM510.557 2.99999H513.557V-7.15256e-06H510.557V2.99999ZM510.557 26.4V29.4H513.557V26.4H510.557ZM443.957 26.4L441.856 24.2591L436.619 29.4H443.957V26.4ZM457.037 13.56H460.037V6.41114L454.936 11.4191L457.037 13.56ZM457.037 93V96H460.037V93H457.037ZM429.077 93H426.077V96H429.077V93ZM429.077 2.99999V-7.15256e-06H426.077V2.99999H429.077ZM442.637 42H508.277V36H442.637V42ZM505.277 39V62.4H511.277V39H505.277ZM508.277 59.4H442.637V65.4H508.277V59.4ZM445.637 62.4V39H439.637V62.4H445.637ZM507.557 2.99999V26.4H513.557V2.99999H507.557ZM510.557 23.4H443.957V29.4H510.557V23.4ZM446.059 28.5409L459.139 15.7009L454.936 11.4191L441.856 24.2591L446.059 28.5409ZM454.037 13.56V93H460.037V13.56H454.037ZM457.037 90H429.077V96H457.037V90ZM432.077 93V2.99999H426.077V93H432.077ZM429.077 5.99999H510.557V-7.15256e-06H429.077V5.99999ZM551.627 61.8L548.96 63.1739L551.627 61.8ZM557.747 68.04L556.284 70.6588L556.314 70.6754L556.344 70.6914L557.747 68.04ZM578.387 68.04L576.984 65.3886L578.387 68.04ZM584.387 61.92L581.704 60.5784L581.696 60.5947L581.688 60.6112L584.387 61.92ZM586.427 2.99999V-7.15256e-06H583.427V2.99999H586.427ZM614.387 2.99999H617.387V-7.15256e-06H614.387V2.99999ZM608.627 75.48L611.173 77.067L611.178 77.0597L611.182 77.0523L608.627 75.48ZM592.427 89.88L593.757 92.5694L592.427 89.88ZM543.707 89.88L542.378 92.5694L543.707 89.88ZM527.387 75.48L524.832 77.0523L524.844 77.0715L524.856 77.0906L527.387 75.48ZM521.627 2.99999V-7.15256e-06H518.627V2.99999H521.627ZM549.587 2.99999H552.587V-7.15256e-06H549.587V2.99999ZM546.587 52.2C546.587 56.3139 547.331 60.011 548.96 63.1739L554.294 60.4261C553.204 58.309 552.587 55.6061 552.587 52.2H546.587ZM548.96 63.1739C550.604 66.3647 553.076 68.8661 556.284 70.6588L559.211 65.4212C556.979 64.1739 555.371 62.5153 554.294 60.4261L548.96 63.1739ZM556.344 70.6914C559.614 72.4227 563.531 73.2 567.947 73.2V67.2C564.203 67.2 561.321 66.5373 559.151 65.3886L556.344 70.6914ZM567.947 73.2C572.501 73.2 576.506 72.4303 579.791 70.6914L576.984 65.3886C574.828 66.5297 571.873 67.2 567.947 67.2V73.2ZM579.791 70.6914C583.045 68.9685 585.514 66.472 587.087 63.2288L581.688 60.6112C580.7 62.648 579.169 64.2315 576.984 65.3886L579.791 70.6914ZM587.071 63.2616C588.682 60.0382 589.427 56.3178 589.427 52.2H583.427C583.427 55.6022 582.812 58.3618 581.704 60.5784L587.071 63.2616ZM589.427 52.2V2.99999H583.427V52.2H589.427ZM586.427 5.99999H614.387V-7.15256e-06H586.427V5.99999ZM611.387 2.99999V53.76H617.387V2.99999H611.387ZM611.387 53.76C611.387 61.5159 609.586 68.1976 606.072 73.9077L611.182 77.0523C615.348 70.2824 617.387 62.4841 617.387 53.76H611.387ZM606.081 73.893C602.557 79.5464 597.594 83.9799 591.098 87.1906L593.757 92.5694C601.181 88.9001 607.017 83.7336 611.173 77.067L606.081 73.893ZM591.098 87.1906C584.628 90.3885 576.94 92.04 567.947 92.04V98.04C577.675 98.04 586.307 96.2515 593.757 92.5694L591.098 87.1906ZM567.947 92.04C559.124 92.04 551.514 90.3918 545.037 87.1906L542.378 92.5694C549.821 96.2482 558.371 98.04 567.947 98.04V92.04ZM545.037 87.1906C538.536 83.9775 533.525 79.5371 529.918 73.8694L524.856 77.0906C529.09 83.7429 534.959 88.9025 542.378 92.5694L545.037 87.1906ZM529.942 73.9077C526.428 68.1976 524.627 61.5159 524.627 53.76H518.627C518.627 62.4841 520.666 70.2824 524.832 77.0523L529.942 73.9077ZM524.627 53.76V2.99999H518.627V53.76H524.627ZM521.627 5.99999H549.587V-7.15256e-06H521.627V5.99999ZM546.587 2.99999V52.2H552.587V2.99999H546.587ZM656.842 2.99999H659.842V-7.15256e-06H656.842V2.99999ZM656.842 80.64L654.731 82.7714L659.842 87.8339V80.64H656.842ZM644.242 68.16V65.16H636.95L642.131 70.2914L644.242 68.16ZM711.322 68.16H714.322V65.16H711.322V68.16ZM711.322 93V96H714.322V93H711.322ZM628.882 93H625.882V96H628.882V93ZM628.882 2.99999V-7.15256e-06H625.882V2.99999H628.882ZM653.842 2.99999V80.64H659.842V2.99999H653.842ZM658.953 78.5086L646.353 66.0285L642.131 70.2914L654.731 82.7714L658.953 78.5086ZM644.242 71.16H711.322V65.16H644.242V71.16ZM708.322 68.16V93H714.322V68.16H708.322ZM711.322 90H628.882V96H711.322V90ZM631.882 93V2.99999H625.882V93H631.882ZM628.882 5.99999H656.842V-7.15256e-06H628.882V5.99999ZM749.537 2.99999H752.537V-7.15256e-06H749.537V2.99999ZM749.537 80.64L747.426 82.7714L752.537 87.8339V80.64H749.537ZM736.937 68.16V65.16H729.645L734.826 70.2914L736.937 68.16ZM804.017 68.16H807.017V65.16H804.017V68.16ZM804.017 93V96H807.017V93H804.017ZM721.577 93H718.577V96H721.577V93ZM721.577 2.99999V-7.15256e-06H718.577V2.99999H721.577ZM746.537 2.99999V80.64H752.537V2.99999H746.537ZM751.648 78.5086L739.048 66.0285L734.826 70.2914L747.426 82.7714L751.648 78.5086ZM736.937 71.16H804.017V65.16H736.937V71.16ZM801.017 68.16V93H807.017V68.16H801.017ZM804.017 90H721.577V96H804.017V90ZM724.577 93V2.99999H718.577V93H724.577ZM721.577 5.99999H749.537V-7.15256e-06H721.577V5.99999ZM827.625 93H824.625V96H827.625V93ZM827.625 48.84V45.84H824.625V48.84H827.625ZM855.584 48.84H858.584V45.84H855.584V48.84ZM855.584 93V96H858.584V93H855.584ZM785.505 2.99999V-7.15256e-06H779.356L783.14 4.84638L785.505 2.99999ZM816.224 2.99999L818.588 1.15279L817.688 -7.15256e-06H816.224V2.99999ZM847.545 43.08V46.08H853.696L849.908 41.2328L847.545 43.08ZM835.545 43.08L833.177 41.2372L829.407 46.08H835.545V43.08ZM866.745 2.99999V-7.15256e-06H865.278L864.377 1.15719L866.745 2.99999ZM897.464 2.99999L899.826 4.85032L903.626 -7.15256e-06H897.464V2.99999ZM850.545 62.88L850.604 65.8794L852.028 65.8509L852.906 64.7303L850.545 62.88ZM832.545 63.24L830.18 65.0864L831.104 66.2694L832.604 66.2394L832.545 63.24ZM830.625 93V48.84H824.625V93H830.625ZM827.625 51.84H855.584V45.84H827.625V51.84ZM852.584 48.84V93H858.584V48.84H852.584ZM855.584 90H827.625V96H855.584V90ZM785.505 5.99999H816.224V-7.15256e-06H785.505V5.99999ZM813.861 4.8472L845.181 44.9272L849.908 41.2328L818.588 1.15279L813.861 4.8472ZM847.545 40.08H835.545V46.08H847.545V40.08ZM837.912 44.9228L869.112 4.8428L864.377 1.15719L833.177 41.2372L837.912 44.9228ZM866.745 5.99999H897.464V-7.15256e-06H866.745V5.99999ZM895.103 1.14966L848.183 61.0297L852.906 64.7303L899.826 4.85032L895.103 1.14966ZM850.484 59.8806L832.484 60.2406L832.604 66.2394L850.604 65.8794L850.484 59.8806ZM834.909 61.3936L787.869 1.15361L783.14 4.84638L830.18 65.0864L834.909 61.3936ZM189.47 157.72L192.449 158.077L192.852 154.72H189.47V157.72ZM181.07 178.84L178.685 177.02L178.678 177.03L178.67 177.04L181.07 178.84ZM162.83 193L161.617 190.256L161.606 190.261L162.83 193ZM109.19 192.16L110.521 189.471L109.19 192.16ZM90.7101 175.72L93.2542 174.13L90.7101 175.72ZM90.7101 126.28L88.1662 124.69L90.7101 126.28ZM109.19 109.84L107.859 107.151V107.151L109.19 109.84ZM162.83 109L161.606 111.739L161.617 111.744L162.83 109ZM181.07 123.16L178.67 124.96L178.683 124.978L178.697 124.995L181.07 123.16ZM189.47 144.28V147.28H192.848L192.449 143.926L189.47 144.28ZM161.39 144.28L158.468 144.96L159.008 147.28H161.39V144.28ZM156.95 135.52L154.652 137.448L154.685 137.488L154.72 137.527L156.95 135.52ZM148.79 129.88L147.665 132.661L147.693 132.672L147.722 132.683L148.79 129.88ZM123.71 130.6L125.052 133.283L123.71 130.6ZM115.19 138.64L117.784 140.148L117.791 140.135L117.799 140.122L115.19 138.64ZM115.19 163.36L112.597 164.868H112.597L115.19 163.36ZM123.71 171.4L122.322 174.06L122.345 174.072L122.369 174.083L123.71 171.4ZM148.79 172.36L149.799 175.185L149.829 175.175L149.858 175.163L148.79 172.36ZM156.95 166.72L154.688 164.75L154.67 164.771L154.652 164.792L156.95 166.72ZM161.39 157.72V154.72H158.995L158.465 157.055L161.39 157.72ZM186.492 157.363C185.592 164.86 182.983 171.389 178.685 177.02L183.455 180.66C188.438 174.131 191.429 166.58 192.449 158.077L186.492 157.363ZM178.67 177.04C174.447 182.671 168.792 187.084 161.617 190.256L164.043 195.744C172.068 192.196 178.574 187.169 183.47 180.64L178.67 177.04ZM161.606 190.261C154.536 193.42 146.325 195.04 136.91 195.04V201.04C147.015 201.04 156.084 199.3 164.054 195.739L161.606 190.261ZM136.91 195.04C126.723 195.04 117.954 193.15 110.521 189.471L107.859 194.849C116.266 199.01 125.978 201.04 136.91 201.04V195.04ZM110.521 189.471C103.066 185.781 97.3402 180.668 93.2542 174.13L88.1662 177.31C92.8801 184.852 99.4745 190.699 107.859 194.849L110.521 189.471ZM93.2542 174.13C89.1914 167.63 87.1102 159.957 87.1102 151H81.1102C81.1102 160.923 83.4289 169.73 88.1662 177.31L93.2542 174.13ZM87.1102 151C87.1102 142.043 89.1914 134.37 93.2542 127.87L88.1662 124.69C83.4289 132.27 81.1102 141.077 81.1102 151H87.1102ZM93.2542 127.87C97.3402 121.332 103.066 116.219 110.521 112.529L107.859 107.151C99.4745 111.301 92.8801 117.148 88.1662 124.69L93.2542 127.87ZM110.521 112.529C117.954 108.85 126.723 106.96 136.91 106.96V100.96C125.978 100.96 116.266 102.99 107.859 107.151L110.521 112.529ZM136.91 106.96C146.325 106.96 154.536 108.58 161.606 111.739L164.054 106.261C156.084 102.7 147.015 100.96 136.91 100.96V106.96ZM161.617 111.744C168.792 114.916 174.447 119.329 178.67 124.96L183.47 121.36C178.574 114.831 172.068 109.804 164.043 106.256L161.617 111.744ZM178.697 124.995C182.98 130.534 185.59 137.053 186.491 144.634L192.449 143.926C191.43 135.347 188.44 127.786 183.443 121.325L178.697 124.995ZM189.47 141.28H161.39V147.28H189.47V141.28ZM164.312 143.6C163.408 139.714 161.71 136.325 159.18 133.513L154.72 137.527C156.51 139.515 157.772 141.966 158.468 144.96L164.312 143.6ZM159.249 133.592C156.805 130.678 153.642 128.518 149.858 127.077L147.722 132.683C150.658 133.802 152.936 135.402 154.652 137.448L159.249 133.592ZM149.916 127.099C146.119 125.562 141.76 124.84 136.91 124.84V130.84C141.18 130.84 144.741 131.478 147.665 132.661L149.916 127.099ZM136.91 124.84C131.436 124.84 126.554 125.824 122.369 127.917L125.052 133.283C128.226 131.696 132.145 130.84 136.91 130.84V124.84ZM122.369 127.917C118.166 130.018 114.881 133.112 112.582 137.158L117.799 140.122C119.5 137.128 121.895 134.862 125.052 133.283L122.369 127.917ZM112.597 137.132C110.28 141.116 109.19 145.78 109.19 151H115.19C115.19 146.62 116.1 143.044 117.784 140.148L112.597 137.132ZM109.19 151C109.19 156.22 110.28 160.884 112.597 164.868L117.784 161.852C116.1 158.956 115.19 155.38 115.19 151H109.19ZM112.597 164.868C114.894 168.82 118.163 171.889 122.322 174.06L125.098 168.74C121.898 167.071 119.486 164.78 117.784 161.852L112.597 164.868ZM122.369 174.083C126.554 176.176 131.436 177.16 136.91 177.16V171.16C132.145 171.16 128.226 170.304 125.052 168.717L122.369 174.083ZM136.91 177.16C141.723 177.16 146.039 176.528 149.799 175.185L147.781 169.535C144.821 170.592 141.217 171.16 136.91 171.16V177.16ZM149.858 175.163C153.642 173.722 156.805 171.562 159.249 168.648L154.652 164.792C152.936 166.838 150.658 168.438 147.722 169.557L149.858 175.163ZM159.212 168.69C161.729 165.801 163.417 162.34 164.316 158.385L158.465 157.055C157.764 160.14 156.491 162.679 154.688 164.75L159.212 168.69ZM161.39 160.72H189.47V154.72H161.39V160.72ZM220.116 144.88V141.88H217.116V144.88H220.116ZM259.716 142.48L257.842 140.137L257.819 140.156L257.796 140.175L259.716 142.48ZM259.716 128.56L257.796 130.865L257.819 130.884L257.842 130.903L259.716 128.56ZM216.156 126.16L214.005 124.069L209.055 129.16H216.156V126.16ZM228.756 113.2H231.756V105.811L226.605 111.109L228.756 113.2ZM228.756 196V199H231.756V196H228.756ZM200.796 196H197.796V199H200.796V196ZM200.796 106V103H197.796V106H200.796ZM274.116 109.72L275.392 107.005L274.116 109.72ZM286.476 150.88L288.965 152.555L288.972 152.544L288.979 152.534L286.476 150.88ZM274.116 161.2L275.357 163.931L275.375 163.923L275.392 163.915L274.116 161.2ZM220.116 164.8H217.116V167.8H220.116V164.8ZM232.116 153.88V150.88H226.296L229.673 155.62L232.116 153.88ZM263.196 153.88L265.613 152.103L264.714 150.88H263.196V153.88ZM294.156 196V199H300.084L296.573 194.223L294.156 196ZM262.116 196L259.673 197.74L260.57 199H262.116V196ZM220.116 147.88H251.556V141.88H220.116V147.88ZM251.556 147.88C255.495 147.88 258.994 146.987 261.637 144.785L257.796 140.175C256.598 141.173 254.657 141.88 251.556 141.88V147.88ZM261.59 144.823C264.438 142.544 265.716 139.281 265.716 135.52H259.716C259.716 137.839 258.994 139.216 257.842 140.137L261.59 144.823ZM265.716 135.52C265.716 131.759 264.438 128.496 261.59 126.217L257.842 130.903C258.994 131.824 259.716 133.201 259.716 135.52H265.716ZM261.637 126.255C258.994 124.053 255.495 123.16 251.556 123.16V129.16C254.657 129.16 256.598 129.867 257.796 130.865L261.637 126.255ZM251.556 123.16H216.156V129.16H251.556V123.16ZM218.307 128.251L230.907 115.291L226.605 111.109L214.005 124.069L218.307 128.251ZM225.756 113.2V196H231.756V113.2H225.756ZM228.756 193H200.796V199H228.756V193ZM203.796 196V106H197.796V196H203.796ZM200.796 109H255.756V103H200.796V109ZM255.756 109C262.359 109 268.029 110.176 272.841 112.435L275.392 107.005C269.643 104.304 263.073 103 255.756 103V109ZM272.841 112.435C277.68 114.708 281.36 117.809 283.987 121.715L288.965 118.365C285.672 113.471 281.112 109.692 275.392 107.005L272.841 112.435ZM283.987 121.715C286.576 125.563 287.916 130.124 287.916 135.52H293.916C293.916 129.076 292.296 123.317 288.965 118.365L283.987 121.715ZM287.916 135.52C287.916 140.737 286.585 145.273 283.973 149.226L288.979 152.534C292.287 147.527 293.916 141.823 293.916 135.52H287.916ZM283.987 149.205C281.36 153.111 277.68 156.212 272.841 158.485L275.392 163.915C281.112 161.228 285.672 157.449 288.965 152.555L283.987 149.205ZM272.875 158.469C268.055 160.66 262.372 161.8 255.756 161.8V167.8C263.06 167.8 269.618 166.54 275.357 163.931L272.875 158.469ZM255.756 161.8H220.116V167.8H255.756V161.8ZM223.116 164.8V144.88H217.116V164.8H223.116ZM232.116 156.88H263.196V150.88H232.116V156.88ZM260.779 155.657L291.739 197.777L296.573 194.223L265.613 152.103L260.779 155.657ZM294.156 193H262.116V199H294.156V193ZM264.56 194.26L234.56 152.14L229.673 155.62L259.673 197.74L264.56 194.26ZM322.306 179.8H319.306V182.8H322.306V179.8ZM322.306 157.48V154.48H319.306V157.48H322.306ZM383.986 157.48H386.986V154.48H383.986V157.48ZM383.986 179.8V182.8H386.986V179.8H383.986ZM372.106 106L374.844 104.773L374.05 103H372.106V106ZM412.426 196V199H417.058L415.164 194.773L412.426 196ZM382.546 196L379.78 197.16L380.551 199H382.546V196ZM349.906 118.12V115.12H345.396L347.14 119.28L349.906 118.12ZM357.466 118.12L360.232 119.283L361.983 115.12H357.466V118.12ZM324.706 196V199H326.699L327.472 197.163L324.706 196ZM294.946 196L292.207 194.777L290.321 199H294.946V196ZM335.146 106V103H333.201L332.407 104.776L335.146 106ZM325.306 179.8V157.48H319.306V179.8H325.306ZM322.306 160.48H383.986V154.48H322.306V160.48ZM380.986 157.48V179.8H386.986V157.48H380.986ZM383.986 176.8H322.306V182.8H383.986V176.8ZM369.369 107.227L409.689 197.227L415.164 194.773L374.844 104.773L369.369 107.227ZM412.426 193H382.546V199H412.426V193ZM385.313 194.84L352.673 116.96L347.14 119.28L379.78 197.16L385.313 194.84ZM349.906 121.12H357.466V115.12H349.906V121.12ZM354.701 116.957L321.941 194.837L327.472 197.163L360.232 119.283L354.701 116.957ZM324.706 193H294.946V199H324.706V193ZM297.686 197.223L337.886 107.223L332.407 104.776L292.207 194.777L297.686 197.223ZM335.146 109H372.106V103H335.146V109ZM433.614 142V139H430.614V142H433.614ZM499.254 142H502.254V139H499.254V142ZM499.254 165.4V168.4H502.254V165.4H499.254ZM433.614 165.4H430.614V168.4H433.614V165.4ZM501.534 106H504.534V103H501.534V106ZM501.534 129.4V132.4H504.534V129.4H501.534ZM434.934 129.4L432.832 127.259L427.595 132.4H434.934V129.4ZM448.014 116.56H451.014V109.411L445.912 114.419L448.014 116.56ZM448.014 196V199H451.014V196H448.014ZM420.054 196H417.054V199H420.054V196ZM420.054 106V103H417.054V106H420.054ZM433.614 145H499.254V139H433.614V145ZM496.254 142V165.4H502.254V142H496.254ZM499.254 162.4H433.614V168.4H499.254V162.4ZM436.614 165.4V142H430.614V165.4H436.614ZM498.534 106V129.4H504.534V106H498.534ZM501.534 126.4H434.934V132.4H501.534V126.4ZM437.036 131.541L450.115 118.701L445.912 114.419L432.832 127.259L437.036 131.541ZM445.014 116.56V196H451.014V116.56H445.014ZM448.014 193H420.054V199H448.014V193ZM423.054 196V106H417.054V196H423.054ZM420.054 109H501.534V103H420.054V109ZM541.764 118.12V115.12H538.764V118.12H541.764ZM569.724 118.12H572.724V115.12H569.724V118.12ZM569.724 196V199H572.724V196H569.724ZM541.764 196H538.764V199H541.764V196ZM508.404 106V103H505.404V106H508.404ZM603.084 106H606.084V103H603.084V106ZM603.084 130.84V133.84H606.084V130.84H603.084ZM508.404 130.84H505.404V133.84H508.404V130.84ZM541.764 121.12H569.724V115.12H541.764V121.12ZM566.724 118.12V196H572.724V118.12H566.724ZM569.724 193H541.764V199H569.724V193ZM544.764 196V118.12H538.764V196H544.764ZM508.404 109H603.084V103H508.404V109ZM600.084 106V130.84H606.084V106H600.084ZM603.084 127.84H508.404V133.84H603.084V127.84ZM511.404 130.84V106H505.404V130.84H511.404ZM691.896 141.16H694.896V138.16H691.896V141.16ZM691.896 160.84V163.84H694.896V160.84H691.896ZM625.056 160.84H622.056V163.84H625.056V160.84ZM625.056 141.16V138.16H622.056V141.16H625.056ZM644.136 151L647.097 151.48L647.175 151L647.097 150.52L644.136 151ZM638.496 185.8L636.267 187.808L640.456 192.457L641.457 186.28L638.496 185.8ZM627.576 173.68V170.68H620.835L625.347 175.688L627.576 173.68ZM696.096 173.68H699.096V170.68H696.096V173.68ZM696.096 196V199H699.096V196H696.096ZM610.776 196L607.809 195.557L607.295 199H610.776V196ZM617.496 151L620.463 151.443L620.529 151L620.463 150.557L617.496 151ZM610.776 106V103H607.295L607.809 106.443L610.776 106ZM695.496 106H698.496V103H695.496V106ZM695.496 128.32V131.32H698.496V128.32H695.496ZM627.576 128.32L625.347 126.312L620.835 131.32H627.576V128.32ZM638.496 116.2L641.457 115.72L640.456 109.543L636.267 114.192L638.496 116.2ZM688.896 141.16V160.84H694.896V141.16H688.896ZM691.896 157.84H625.056V163.84H691.896V157.84ZM628.056 160.84V141.16H622.056V160.84H628.056ZM625.056 144.16H691.896V138.16H625.056V144.16ZM641.175 150.52L635.535 185.32L641.457 186.28L647.097 151.48L641.175 150.52ZM640.725 183.792L629.805 171.672L625.347 175.688L636.267 187.808L640.725 183.792ZM627.576 176.68H696.096V170.68H627.576V176.68ZM693.096 173.68V196H699.096V173.68H693.096ZM696.096 193H610.776V199H696.096V193ZM613.743 196.443L620.463 151.443L614.529 150.557L607.809 195.557L613.743 196.443ZM620.463 150.557L613.743 105.557L607.809 106.443L614.529 151.443L620.463 150.557ZM610.776 109H695.496V103H610.776V109ZM692.496 106V128.32H698.496V106H692.496ZM695.496 125.32H627.576V131.32H695.496V125.32ZM629.805 130.328L640.725 118.208L636.267 114.192L625.347 126.312L629.805 130.328ZM635.535 116.68L641.175 151.48L647.097 150.52L641.457 115.72L635.535 116.68ZM784.264 111.64L782.999 114.36L783.015 114.367L783.031 114.375L784.264 111.64ZM803.224 127.24L800.728 128.904L800.735 128.914L800.742 128.924L803.224 127.24ZM803.224 174.76L800.733 173.089L800.728 173.096L803.224 174.76ZM784.264 190.48L785.508 193.21L785.52 193.205L784.264 190.48ZM709.624 196H706.624V199H709.624V196ZM709.624 106V103H706.624V106H709.624ZM737.344 183.88L735.233 186.011L740.344 191.075V183.88H737.344ZM724.504 171.16V168.16H717.213L722.393 173.291L724.504 171.16ZM770.704 168.76L771.946 171.491L771.959 171.485L771.973 171.479L770.704 168.76ZM778.984 161.68L776.448 160.078L778.984 161.68ZM778.984 140.32L776.448 141.922L776.457 141.937L776.467 141.953L778.984 140.32ZM770.704 133.36L769.412 136.067L769.449 136.085L769.486 136.101L770.704 133.36ZM724.504 130.84L722.393 128.709L717.213 133.84H724.504V130.84ZM737.344 118.12H740.344V110.925L735.233 115.989L737.344 118.12ZM755.944 109C766.398 109 775.39 110.819 782.999 114.36L785.53 108.92C776.979 104.941 767.091 103 755.944 103V109ZM783.031 114.375C790.735 117.849 796.593 122.702 800.728 128.904L805.72 125.576C800.895 118.338 794.113 112.791 785.498 108.905L783.031 114.375ZM800.742 128.924C804.924 135.088 807.064 142.404 807.064 151H813.064C813.064 141.356 810.645 132.832 805.707 125.555L800.742 128.924ZM807.064 151C807.064 159.509 804.927 166.834 800.733 173.089L805.716 176.431C810.641 169.086 813.064 160.571 813.064 151H807.064ZM800.728 173.096C796.589 179.304 790.723 184.201 783.009 187.755L785.52 193.205C794.125 189.239 800.899 183.656 805.72 176.424L800.728 173.096ZM783.021 187.75C775.406 191.218 766.406 193 755.944 193V199C767.082 199 776.962 197.102 785.508 193.21L783.021 187.75ZM755.944 193H709.624V199H755.944V193ZM712.624 196V106H706.624V196H712.624ZM709.624 109H755.944V103H709.624V109ZM739.456 181.749L726.616 169.029L722.393 173.291L735.233 186.011L739.456 181.749ZM724.504 174.16H758.104V168.16H724.504V174.16ZM758.104 174.16C763.304 174.16 767.948 173.308 771.946 171.491L769.463 166.029C766.421 167.412 762.665 168.16 758.104 168.16V174.16ZM771.973 171.479C776.037 169.582 779.262 166.858 781.521 163.282L776.448 160.078C774.866 162.582 772.571 164.578 769.436 166.041L771.973 171.479ZM781.521 163.282C783.783 159.7 784.864 155.569 784.864 151H778.864C778.864 154.591 778.026 157.58 776.448 160.078L781.521 163.282ZM784.864 151C784.864 146.366 783.789 142.215 781.501 138.687L776.467 141.953C778.019 144.345 778.864 147.314 778.864 151H784.864ZM781.521 138.718C779.254 135.128 776.011 132.436 771.923 130.619L769.486 136.101C772.598 137.484 774.875 139.432 776.448 141.922L781.521 138.718ZM771.996 130.653C767.985 128.738 763.322 127.84 758.104 127.84V133.84C762.646 133.84 766.384 134.622 769.412 136.067L771.996 130.653ZM758.104 127.84H724.504V133.84H758.104V127.84ZM726.616 132.971L739.456 120.251L735.233 115.989L722.393 128.709L726.616 132.971ZM734.344 118.12V183.88H740.344V118.12H734.344Z" fill="#F0EDEE" mask="url(#path-1-outside-1_388_43845)"/>
</svg>
