<svg width="443" height="682" viewBox="0 0 443 682" fill="none" xmlns="http://www.w3.org/2000/svg">
<path d="M30.5479 -28.4337C26.4403 -2.0764 22.4827 16.7903 30.2092 37.2886C35.5444 51.4428 46.1102 58.5595 56.3565 60.1563C73.6788 62.8559 91.1013 67.9096 108.754 68.1601C136.644 68.556 166.595 55.0035 194.976 47.4137C213.158 42.5514 231.136 27.4265 249.387 25.4358C259.565 24.3257 270.04 20.0111 280.236 16.9587C294.339 12.7368 301.821 22.5907 314.716 24.6004C351.853 36.2738 362.521 73.2419 363.506 96.3589M363.506 96.3589C363.78 102.791 362.338 90.1348 363.506 96.3589ZM363.506 96.3589C366.196 110.703 338.502 136.871 331.62 146.796C326.222 154.58 318.061 164.282 311.588 167.652C303.061 172.091 291.305 184.457 283.696 192.466C277.251 199.249 270.813 205.333 264.463 212.312C258.674 218.676 252.757 229.763 251.08 240.522C247.552 263.166 258.953 260.866 269.837 262.562C275.438 263.435 280.839 264.415 286.593 260.961C296.094 255.256 305.826 253.842 315.119 248.558C328.391 241.01 341.943 231.277 355.823 225.092C360.724 222.908 366.93 222.039 371.559 219.444C385.187 211.801 394.473 209.082 407.52 211.115C415.172 212.308 416.577 232.506 417.299 243.097C418.722 263.966 404.595 275.854 396.393 289.575C382.253 307.434 344.776 365.61 330.507 382.83C314.334 402.349 298.88 424.164 283.072 444.777C277.405 452.167 273.427 460.271 269.491 469.553C258.631 495.163 284.836 493.444 293.579 492.1C310.636 489.479 328.028 479.035 345.222 475.523C356.15 473.291 373.725 464.767 384.394 470.126C393.736 474.817 389.803 494.258 387.826 506.95C381.892 545.021 353.305 569.355 335.112 588.649C319.198 605.526 306.709 624.239 292.097 639.296C282.022 649.679 267.242 676.987 264.248 696.195" stroke="url(#paint0_linear_295_14212)" stroke-opacity="0.9" stroke-width="51" stroke-linecap="round"/>
<defs>
<linearGradient id="paint0_linear_295_14212" x1="-16.9136" y1="320.412" x2="409.182" y2="386.748" gradientUnits="userSpaceOnUse">
<stop stop-color="#0439C2"/>
<stop offset="0.473958" stop-color="#1FA1D8"/>
<stop offset="1" stop-color="#15E6CD"/>
</linearGradient>
</defs>
</svg>
