<svg width="83" height="90" viewBox="0 0 83 90" fill="none" xmlns="http://www.w3.org/2000/svg">
<path d="M39.8 27.504C35.712 27.504 32.354 26.2873 29.726 23.854C27.098 21.3233 25.784 18.0627 25.784 14.072C25.784 10.1787 27.098 6.96666 29.726 4.436C32.354 1.90533 35.712 0.639996 39.8 0.639996C43.888 0.639996 47.246 1.90533 49.874 4.436C52.502 6.96666 53.816 10.1787 53.816 14.072C53.816 18.0627 52.502 21.3233 49.874 23.854C47.246 26.2873 43.888 27.504 39.8 27.504ZM39.8 89.992C35.712 89.992 32.354 88.7267 29.726 86.196C27.098 83.6653 25.784 80.4533 25.784 76.56C25.784 72.5693 27.098 69.3573 29.726 66.924C32.354 64.3933 35.712 63.128 39.8 63.128C43.888 63.128 47.246 64.3933 49.874 66.924C52.502 69.3573 53.816 72.5693 53.816 76.56C53.816 80.4533 52.502 83.6653 49.874 86.196C47.246 88.7267 43.888 89.992 39.8 89.992ZM0.38 33.344H82.14V57.288H0.38V33.344Z" fill="url(#paint0_linear_295_14081)" fill-opacity="0.9"/>
<defs>
<linearGradient id="paint0_linear_295_14081" x1="-2.56948" y1="46.0098" x2="87.5374" y2="45.9997" gradientUnits="userSpaceOnUse">
<stop stop-color="#0439C2"/>
<stop offset="0.473958" stop-color="#1FA1D8"/>
<stop offset="1" stop-color="#15E6CD"/>
</linearGradient>
</defs>
</svg>
