<svg width="404" height="412" viewBox="0 0 404 412" fill="none" xmlns="http://www.w3.org/2000/svg">
<path fill-rule="evenodd" clip-rule="evenodd" d="M404 206C404 92.2293 313.562 0 202 0C90.4385 0 0 92.2293 0 206C0 319.771 90.4385 412 202 412C313.562 412 404 319.771 404 206ZM176.75 206C176.75 296.404 183.888 373.206 193.817 400.941C191.942 398.958 189.916 396.225 187.777 392.536C182.179 382.876 176.918 368.469 172.415 350.103C163.434 313.468 157.812 262.518 157.812 206C157.812 149.482 163.434 98.5316 172.415 61.8973C176.918 43.5307 182.179 29.124 187.777 19.4641C189.916 15.7748 191.942 13.0419 193.817 11.0593C183.888 38.794 176.75 115.596 176.75 206ZM216.223 392.536C214.084 396.225 212.058 398.958 210.183 400.941C220.112 373.206 227.25 296.404 227.25 206C227.25 115.596 220.112 38.794 210.183 11.0592C212.058 13.0419 214.084 15.7748 216.223 19.4641C221.821 29.124 227.082 43.5307 231.585 61.8973C240.566 98.5316 246.188 149.482 246.188 206C246.188 262.518 240.566 313.468 231.585 350.103C227.082 368.469 221.821 382.876 216.223 392.536ZM183.559 397.833C181.456 396.059 179.347 393.966 177.238 391.541C168.87 381.916 161.046 367.621 154.347 349.404C140.967 313.017 132.562 262.318 132.562 206C132.562 149.682 140.967 98.9829 154.347 62.5964C161.046 44.3794 168.87 30.0843 177.238 20.4592C179.347 18.0339 181.456 15.941 183.559 14.1669C164.789 44.2144 151.5 118.777 151.5 206C151.5 293.223 164.789 367.786 183.559 397.833ZM220.441 397.833C222.544 396.059 224.653 393.966 226.762 391.541C235.13 381.916 242.954 367.621 249.653 349.404C263.033 313.017 271.438 262.318 271.438 206C271.438 149.682 263.033 98.9829 249.653 62.5964C242.954 44.3794 235.13 30.0843 226.762 20.4592C224.653 18.0339 222.544 15.941 220.441 14.1668C239.211 44.2144 252.5 118.777 252.5 206C252.5 293.223 239.211 367.786 220.441 397.833ZM136.228 348.785C146.481 369.697 158.588 385.249 171.599 394.739C144.9 362.888 126.25 290.367 126.25 206C126.25 121.633 144.9 49.1116 171.599 17.261C158.588 26.7507 146.481 42.3033 136.228 63.2149C118.475 99.4242 107.312 149.897 107.312 206C107.312 262.103 118.475 312.576 136.228 348.785ZM267.772 348.785C257.519 369.697 245.412 385.249 232.401 394.739C259.1 362.888 277.75 290.367 277.75 206C277.75 121.633 259.1 49.1116 232.401 17.261C245.412 26.7507 257.519 42.3033 267.772 63.2149C285.525 99.4242 296.688 149.897 296.688 206C296.688 262.103 285.525 312.576 267.772 348.785ZM158.266 391.739C143.316 381.921 129.656 367.14 118.081 348.252C95.9543 312.149 82.0625 261.872 82.0625 206C82.0625 150.128 95.9543 99.8512 118.081 63.7479C129.656 44.8604 143.316 30.0789 158.266 20.2613C124.385 53.5086 101 124.184 101 206C101 287.816 124.385 358.491 158.266 391.739ZM245.734 391.739C260.684 381.921 274.344 367.14 285.919 348.252C308.046 312.149 321.938 261.872 321.938 206C321.938 150.128 308.046 99.8512 285.919 63.7479C274.344 44.8604 260.684 30.0788 245.734 20.2613C279.615 53.5086 303 124.184 303 206C303 287.816 279.615 358.491 245.734 391.739ZM99.9233 347.801C112.561 364.986 127.388 378.91 143.711 388.778C103.324 354.417 75.75 285.463 75.75 206C75.75 126.537 103.324 57.5831 143.711 23.2222C127.388 33.0903 112.561 47.014 99.9233 64.1985C73.4026 100.26 56.8125 150.373 56.8125 206C56.8125 261.627 73.4026 311.74 99.9233 347.801ZM304.077 347.801C291.439 364.986 276.612 378.91 260.289 388.778C300.676 354.417 328.25 285.463 328.25 206C328.25 126.537 300.676 57.5831 260.289 23.2222C276.612 33.0902 291.439 47.014 304.077 64.1985C330.597 100.26 347.188 150.373 347.188 206C347.188 261.627 330.597 311.74 304.077 347.801ZM127.901 385.721C71.127 353.56 31.5625 285.565 31.5625 206C31.5625 126.435 71.127 58.44 127.901 26.2793C81.7086 61.5671 50.5 128.828 50.5 206C50.5 283.172 81.7087 350.433 127.901 385.721ZM276.099 385.721C332.873 353.56 372.438 285.565 372.438 206C372.438 126.435 332.873 58.44 276.099 26.2792C322.291 61.5671 353.5 128.828 353.5 206C353.5 283.172 322.291 350.433 276.099 385.721ZM6.3125 206C6.3125 282.917 48.9828 349.67 111.5 382.985C59.8433 347.027 25.25 281.222 25.25 206C25.25 130.778 59.8433 64.9726 111.5 29.0151C48.9828 62.3296 6.3125 129.083 6.3125 206ZM397.688 206C397.688 282.917 355.017 349.67 292.5 382.985C344.157 347.027 378.75 281.222 378.75 206C378.75 130.778 344.157 64.9726 292.5 29.0151C355.017 62.3296 397.688 129.083 397.688 206ZM213.591 350.866C218.119 313.926 220.938 262.705 220.938 206C220.938 149.295 218.119 98.0744 213.591 61.1345C211.321 42.6193 208.651 27.939 205.775 18.013C205.567 17.2975 205.361 16.6143 205.156 15.9629V396.037C205.361 395.386 205.567 394.703 205.775 393.987C208.651 384.061 211.321 369.381 213.591 350.866ZM198.844 15.9629V396.037C198.639 395.386 198.433 394.703 198.225 393.987C195.349 384.061 192.679 369.381 190.409 350.866C185.881 313.926 183.062 262.705 183.062 206C183.062 149.295 185.881 98.0744 190.409 61.1345C192.679 42.6193 195.349 27.939 198.225 18.013C198.433 17.2975 198.639 16.6143 198.844 15.9629Z" fill="url(#paint0_linear_310_18888)" fill-opacity="0.9"/>
<defs>
<linearGradient id="paint0_linear_310_18888" x1="6.35086" y1="213.266" x2="406.386" y2="213.171" gradientUnits="userSpaceOnUse">
<stop stop-color="#0439C2"/>
<stop offset="0.473958" stop-color="#1FA1D8"/>
<stop offset="1" stop-color="#15E6CD"/>
</linearGradient>
</defs>
</svg>
