<svg id='svg' width="1132" height="96" viewBox="0 0 1132 96" fill="none" xmlns="http://www.w3.org/2000/svg">
<mask id="path-1-outside-1_388_44811" maskUnits="userSpaceOnUse" x="-3" y="-3" width="1138" height="102" fill="black">
<rect fill="white" x="-3" y="-3" width="1138" height="102"/>
<path d="M135.455 2.99999V93H108.815V13.32L114.335 13.92L81.8152 93H53.9752L21.3352 14.16L26.8552 13.44V93H0.335157V2.99999H43.4152L73.0552 78.24H62.8552L92.2552 2.99999H135.455ZM201.321 95.04C190.521 95.04 181.041 93.08 172.881 89.16C164.801 85.24 158.481 79.76 153.921 72.72C149.441 65.68 147.201 57.44 147.201 48C147.201 38.56 149.441 30.32 153.921 23.28C158.481 16.24 164.801 10.76 172.881 6.83999C181.041 2.92 190.521 0.959998 201.321 0.959998C212.121 0.959998 221.561 2.92 229.641 6.83999C237.801 10.76 244.121 16.24 248.601 23.28C253.161 30.32 255.441 38.56 255.441 48C255.441 57.44 253.161 65.68 248.601 72.72C244.121 79.76 237.801 85.24 229.641 89.16C221.561 93.08 212.121 95.04 201.321 95.04ZM201.321 70.2C206.681 70.2 211.281 69.32 215.121 67.56C219.041 65.72 222.041 63.16 224.121 59.88C226.201 56.52 227.241 52.56 227.241 48C227.241 43.44 226.201 39.52 224.121 36.24C222.041 32.88 219.041 30.32 215.121 28.56C211.281 26.72 206.681 25.8 201.321 25.8C195.961 25.8 191.321 26.72 187.401 28.56C183.561 30.32 180.601 32.88 178.521 36.24C176.441 39.52 175.401 43.44 175.401 48C175.401 52.56 176.441 56.52 178.521 59.88C180.601 63.16 183.561 65.72 187.401 67.56C191.321 69.32 195.961 70.2 201.321 70.2ZM315.602 54.72V37.68L360.482 93H326.042L298.082 56.28H312.002L283.802 93H249.962L295.082 37.68V54.72L252.362 2.99999H287.282L312.602 36H298.682L323.522 2.99999H357.962L315.602 54.72ZM366.78 2.99999H394.74V93H366.78V2.99999ZM488.857 38.16V57.84H422.017V38.16H488.857ZM441.097 48L435.457 82.8L424.537 70.68H493.057V93H407.737L414.457 48L407.737 2.99999H492.457V25.32H424.537L435.457 13.2L441.097 48ZM504.305 47.52L517.025 20.88L518.705 31.08C515.905 31.08 513.345 30.44 511.025 29.16C508.785 27.8 506.985 26 505.625 23.76C504.345 21.52 503.705 19.04 503.705 16.32C503.705 13.6 504.345 11.16 505.625 8.99999C506.985 6.75999 508.785 5 511.025 3.72C513.345 2.36 515.905 1.68 518.705 1.68C521.505 1.68 524.025 2.36 526.265 3.72C528.505 5 530.265 6.75999 531.545 8.99999C532.905 11.24 533.585 13.76 533.585 16.56C533.585 19.12 532.945 21.88 531.665 24.84C530.385 27.8 528.225 31.48 525.185 35.88L517.145 47.52H504.305ZM540.254 63.48H568.574C568.894 65.56 569.894 67.4 571.574 69C573.334 70.52 575.694 71.72 578.654 72.6C581.614 73.4 585.094 73.8 589.094 73.8C594.614 73.8 598.894 73.16 601.934 71.88C605.054 70.6 606.614 68.64 606.614 66C606.614 64.16 605.734 62.68 603.974 61.56C602.214 60.36 598.734 59.56 593.534 59.16L577.694 57.84C564.734 56.88 555.334 54.08 549.494 49.44C543.734 44.72 540.854 38.4 540.854 30.48C540.854 24 542.734 18.6 546.494 14.28C550.254 9.88 555.494 6.56 562.214 4.32C568.934 2.08 576.854 0.959998 585.974 0.959998C594.774 0.959998 602.574 2.2 609.374 4.67999C616.254 7.15999 621.694 10.68 625.694 15.24C629.774 19.72 632.014 24.96 632.414 30.96H604.094C603.774 29.2 602.854 27.68 601.334 26.4C599.894 25.04 597.814 24 595.094 23.28C592.374 22.56 589.134 22.2 585.374 22.2C580.414 22.2 576.454 22.8 573.494 24C570.614 25.2 569.174 27 569.174 29.4C569.174 31.16 570.014 32.6 571.694 33.72C573.454 34.84 576.654 35.6 581.294 36L598.694 37.44C607.334 38.08 614.294 39.44 619.574 41.52C624.934 43.52 628.814 46.28 631.214 49.8C633.614 53.24 634.814 57.6 634.814 62.88C634.814 69.28 632.894 74.92 629.054 79.8C625.214 84.6 619.814 88.36 612.854 91.08C605.974 93.72 597.894 95.04 588.614 95.04C579.094 95.04 570.734 93.72 563.534 91.08C556.334 88.44 550.694 84.76 546.614 80.04C542.534 75.24 540.414 69.72 540.254 63.48ZM703.647 2.99999V80.64L691.047 68.16H758.127V93H675.687V2.99999H703.647ZM787.822 76.8V54.48H849.502V76.8H787.822ZM837.622 2.99999L877.942 93H848.062L815.422 15.12H822.982L790.222 93H760.462L800.662 2.99999H837.622ZM992.43 80.88L984.03 81L1004.67 2.99999H1034.19L1007.79 93H971.91L947.19 18H958.35L933.63 93H897.75L871.35 2.99999H900.99L921.63 80.88L913.35 80.76L938.07 2.99999H967.47L992.43 80.88ZM1036.89 63.48H1065.21C1065.53 65.56 1066.53 67.4 1068.21 69C1069.97 70.52 1072.33 71.72 1075.29 72.6C1078.25 73.4 1081.73 73.8 1085.73 73.8C1091.25 73.8 1095.53 73.16 1098.57 71.88C1101.69 70.6 1103.25 68.64 1103.25 66C1103.25 64.16 1102.37 62.68 1100.61 61.56C1098.85 60.36 1095.37 59.56 1090.17 59.16L1074.33 57.84C1061.37 56.88 1051.97 54.08 1046.13 49.44C1040.37 44.72 1037.49 38.4 1037.49 30.48C1037.49 24 1039.37 18.6 1043.13 14.28C1046.89 9.88 1052.13 6.56 1058.85 4.32C1065.57 2.08 1073.49 0.959998 1082.61 0.959998C1091.41 0.959998 1099.21 2.2 1106.01 4.67999C1112.89 7.15999 1118.33 10.68 1122.33 15.24C1126.41 19.72 1128.65 24.96 1129.05 30.96H1100.73C1100.41 29.2 1099.49 27.68 1097.97 26.4C1096.53 25.04 1094.45 24 1091.73 23.28C1089.01 22.56 1085.77 22.2 1082.01 22.2C1077.05 22.2 1073.09 22.8 1070.13 24C1067.25 25.2 1065.81 27 1065.81 29.4C1065.81 31.16 1066.65 32.6 1068.33 33.72C1070.09 34.84 1073.29 35.6 1077.93 36L1095.33 37.44C1103.97 38.08 1110.93 39.44 1116.21 41.52C1121.57 43.52 1125.45 46.28 1127.85 49.8C1130.25 53.24 1131.45 57.6 1131.45 62.88C1131.45 69.28 1129.53 74.92 1125.69 79.8C1121.85 84.6 1116.45 88.36 1109.49 91.08C1102.61 93.72 1094.53 95.04 1085.25 95.04C1075.73 95.04 1067.37 93.72 1060.17 91.08C1052.97 88.44 1047.33 84.76 1043.25 80.04C1039.17 75.24 1037.05 69.72 1036.89 63.48Z"/>
</mask>
<path d="M135.455 2.99999H138.455V-7.15256e-06H135.455V2.99999ZM135.455 93V96H138.455V93H135.455ZM108.815 93H105.815V96H108.815V93ZM108.815 13.32L109.139 10.3376L105.815 9.97624V13.32H108.815ZM114.335 13.92L117.11 15.061L118.628 11.3689L114.659 10.9376L114.335 13.92ZM81.8152 93V96H83.8252L84.5897 94.141L81.8152 93ZM53.9752 93L51.2033 94.1476L51.9702 96H53.9752V93ZM21.3352 14.16L20.9471 11.1852L17.0662 11.6914L18.5633 15.3076L21.3352 14.16ZM26.8552 13.44H29.8552V10.0233L26.4671 10.4652L26.8552 13.44ZM26.8552 93V96H29.8552V93H26.8552ZM0.335159 93H-2.66484V96H0.335159V93ZM0.335159 2.99999V-7.15256e-06H-2.66484V2.99999H0.335159ZM43.4152 2.99999L46.2064 1.90042L45.4577 -7.15256e-06H43.4152V2.99999ZM73.0552 78.24V81.24H77.4614L75.8464 77.1404L73.0552 78.24ZM62.8552 78.24L60.0609 77.1481L58.462 81.24H62.8552V78.24ZM92.2552 2.99999V-7.15256e-06H90.2065L89.4609 1.90814L92.2552 2.99999ZM132.455 2.99999V93H138.455V2.99999H132.455ZM135.455 90H108.815V96H135.455V90ZM111.815 93V13.32H105.815V93H111.815ZM108.491 16.3024L114.011 16.9024L114.659 10.9376L109.139 10.3376L108.491 16.3024ZM111.561 12.779L79.0406 91.859L84.5897 94.141L117.11 15.061L111.561 12.779ZM81.8152 90H53.9752V96H81.8152V90ZM56.747 91.8524L24.107 13.0124L18.5633 15.3076L51.2033 94.1476L56.747 91.8524ZM21.7232 17.1348L27.2432 16.4148L26.4671 10.4652L20.9471 11.1852L21.7232 17.1348ZM23.8552 13.44V93H29.8552V13.44H23.8552ZM26.8552 90H0.335159V96H26.8552V90ZM3.33516 93V2.99999H-2.66484V93H3.33516ZM0.335159 5.99999H43.4152V-7.15256e-06H0.335159V5.99999ZM40.6239 4.09957L70.2639 79.3396L75.8464 77.1404L46.2064 1.90042L40.6239 4.09957ZM73.0552 75.24H62.8552V81.24H73.0552V75.24ZM65.6494 79.3319L95.0494 4.09185L89.4609 1.90814L60.0609 77.1481L65.6494 79.3319ZM92.2552 5.99999H135.455V-7.15256e-06H92.2552V5.99999ZM172.881 89.16L171.572 91.8591L171.582 91.8642L172.881 89.16ZM153.921 72.72L151.39 74.3306L151.397 74.3408L151.403 74.3509L153.921 72.72ZM153.921 23.28L151.403 21.6491L151.397 21.6592L151.39 21.6694L153.921 23.28ZM172.881 6.83999L171.582 4.13582L171.572 4.14087L172.881 6.83999ZM229.641 6.83999L228.332 9.53914L228.342 9.54415L229.641 6.83999ZM248.601 23.28L246.07 24.8906L246.077 24.9008L246.083 24.9109L248.601 23.28ZM248.601 72.72L246.083 71.0891L246.077 71.0992L246.07 71.1094L248.601 72.72ZM229.641 89.16L228.342 86.4558L228.332 86.4609L229.641 89.16ZM215.121 67.56L216.371 70.2872L216.383 70.2815L216.396 70.2757L215.121 67.56ZM224.121 59.88L226.655 61.4866L226.663 61.4729L226.672 61.4591L224.121 59.88ZM224.121 36.24L221.57 37.8191L221.579 37.8329L221.588 37.8466L224.121 36.24ZM215.121 28.56L213.825 31.2654L213.858 31.2815L213.892 31.2968L215.121 28.56ZM187.401 28.56L188.651 31.2872L188.663 31.2815L188.676 31.2757L187.401 28.56ZM178.521 36.24L181.055 37.8466L181.063 37.8329L181.072 37.8191L178.521 36.24ZM178.521 59.88L175.97 61.4591L175.979 61.4729L175.988 61.4866L178.521 59.88ZM187.401 67.56L186.105 70.2654L186.138 70.2815L186.172 70.2968L187.401 67.56ZM201.321 92.04C190.885 92.04 181.864 90.1471 174.18 86.4558L171.582 91.8642C180.218 96.0129 190.157 98.04 201.321 98.04V92.04ZM174.191 86.4609C166.567 82.7624 160.68 77.6367 156.439 71.0891L151.403 74.3509C156.282 81.8833 163.035 87.7176 171.572 91.8591L174.191 86.4609ZM156.452 71.1094C152.317 64.6118 150.201 56.9465 150.201 48H144.201C144.201 57.9335 146.565 66.7482 151.39 74.3306L156.452 71.1094ZM150.201 48C150.201 39.0535 152.317 31.3882 156.452 24.8906L151.39 21.6694C146.565 29.2518 144.201 38.0665 144.201 48H150.201ZM156.439 24.9109C160.68 18.3633 166.567 13.2376 174.191 9.53912L171.572 4.14087C163.035 8.28238 156.282 14.1167 151.403 21.6491L156.439 24.9109ZM174.18 9.54415C181.864 5.85292 190.885 3.96 201.321 3.96V-2.04C190.157 -2.04 180.218 -0.0129282 171.582 4.13584L174.18 9.54415ZM201.321 3.96C211.758 3.96 220.734 5.85323 228.332 9.53912L230.951 4.14087C222.388 -0.0132418 212.484 -2.04 201.321 -2.04V3.96ZM228.342 9.54415C236.042 13.2431 241.916 18.3629 246.07 24.8906L251.132 21.6694C246.326 14.1171 239.56 8.2769 230.94 4.13584L228.342 9.54415ZM246.083 24.9109C250.29 31.4059 252.441 39.0639 252.441 48H258.441C258.441 38.0561 256.032 29.2341 251.119 21.6491L246.083 24.9109ZM252.441 48C252.441 56.9361 250.29 64.5941 246.083 71.0891L251.119 74.3509C256.032 66.7659 258.441 57.9439 258.441 48H252.441ZM246.07 71.1094C241.916 77.6371 236.042 82.7569 228.342 86.4558L230.94 91.8642C239.56 87.7231 246.326 81.8829 251.132 74.3306L246.07 71.1094ZM228.332 86.4609C220.734 90.1468 211.758 92.04 201.321 92.04V98.04C212.484 98.04 222.388 96.0132 230.951 91.8591L228.332 86.4609ZM201.321 73.2C207 73.2 212.048 72.2684 216.371 70.2872L213.871 64.8328C210.514 66.3716 206.362 67.2 201.321 67.2V73.2ZM216.396 70.2757C220.771 68.222 224.235 65.3027 226.655 61.4866L221.588 58.2734C219.848 61.0173 217.311 63.218 213.846 64.8443L216.396 70.2757ZM226.672 61.4591C229.088 57.5554 230.241 53.0303 230.241 48H224.241C224.241 52.0897 223.314 55.4846 221.57 58.3009L226.672 61.4591ZM230.241 48C230.241 42.9717 229.089 38.4723 226.655 34.6334L221.588 37.8466C223.313 40.5677 224.241 43.9083 224.241 48H230.241ZM226.672 34.6609C224.249 30.7471 220.766 27.8061 216.35 25.8232L213.892 31.2968C217.316 32.8339 219.833 35.0129 221.57 37.8191L226.672 34.6609ZM216.417 25.8546C212.082 23.7772 207.017 22.8 201.321 22.8V28.8C206.345 28.8 210.48 29.6628 213.825 31.2654L216.417 25.8546ZM201.321 22.8C195.623 22.8 190.528 23.778 186.126 25.8443L188.676 31.2757C192.114 29.662 196.299 28.8 201.321 28.8V22.8ZM186.151 25.8328C181.813 27.8212 178.383 30.7633 175.97 34.6609L181.072 37.8191C182.819 34.9967 185.309 32.8188 188.651 31.2872L186.151 25.8328ZM175.988 34.6334C173.553 38.4723 172.401 42.9717 172.401 48H178.401C178.401 43.9083 179.329 40.5677 181.055 37.8466L175.988 34.6334ZM172.401 48C172.401 53.0303 173.554 57.5554 175.97 61.4591L181.072 58.3009C179.328 55.4846 178.401 52.0897 178.401 48H172.401ZM175.988 61.4866C178.397 65.2869 181.808 68.2066 186.105 70.2654L188.697 64.8546C185.314 63.2334 182.805 61.0331 181.055 58.2734L175.988 61.4866ZM186.172 70.2968C190.562 72.2676 195.639 73.2 201.321 73.2V67.2C196.283 67.2 192.08 66.3724 188.63 64.8232L186.172 70.2968ZM315.602 54.72H312.602V63.1175L317.923 56.6209L315.602 54.72ZM315.602 37.68L317.932 35.7899L312.602 29.2204V37.68H315.602ZM360.482 93V96H366.779L362.812 91.1099L360.482 93ZM326.042 93L323.656 94.8174L324.556 96H326.042V93ZM298.082 56.28V53.28H292.027L295.696 58.0974L298.082 56.28ZM312.002 56.28L314.382 58.1073L318.089 53.28H312.002V56.28ZM283.802 93V96H285.281L286.182 94.8273L283.802 93ZM249.962 93L247.638 91.1039L243.644 96H249.962V93ZM295.082 37.68H298.082V29.2553L292.758 35.7839L295.082 37.68ZM295.082 54.72L292.769 56.6305L298.082 63.0628V54.72H295.082ZM252.362 2.99999V-7.15256e-06H245.993L250.049 4.9105L252.362 2.99999ZM287.282 2.99999L289.662 1.17379L288.762 -7.15256e-06H287.282V2.99999ZM312.602 36V39H318.685L314.982 34.1738L312.602 36ZM298.682 36L296.285 34.1958L292.669 39H298.682V36ZM323.522 2.99999V-7.15256e-06H322.026L321.125 1.19581L323.522 2.99999ZM357.962 2.99999L360.283 4.90088L364.297 -7.15256e-06H357.962V2.99999ZM318.602 54.72V37.68H312.602V54.72H318.602ZM313.273 39.5701L358.153 94.8901L362.812 91.1099L317.932 35.7899L313.273 39.5701ZM360.482 90H326.042V96H360.482V90ZM328.429 91.1826L300.469 54.4626L295.696 58.0974L323.656 94.8174L328.429 91.1826ZM298.082 59.28H312.002V53.28H298.082V59.28ZM309.623 54.4527L281.423 91.1727L286.182 94.8273L314.382 58.1073L309.623 54.4527ZM283.802 90H249.962V96H283.802V90ZM252.287 94.8961L297.407 39.5761L292.758 35.7839L247.638 91.1039L252.287 94.8961ZM292.082 37.68V54.72H298.082V37.68H292.082ZM297.395 52.8095L254.675 1.08949L250.049 4.9105L292.769 56.6305L297.395 52.8095ZM252.362 5.99999H287.282V-7.15256e-06H252.362V5.99999ZM284.902 4.8262L310.222 37.8262L314.982 34.1738L289.662 1.17379L284.902 4.8262ZM312.602 33H298.682V39H312.602V33ZM301.079 37.8042L325.919 4.80417L321.125 1.19581L296.285 34.1958L301.079 37.8042ZM323.522 5.99999H357.962V-7.15256e-06H323.522V5.99999ZM355.641 1.09911L313.281 52.8191L317.923 56.6209L360.283 4.90088L355.641 1.09911ZM366.78 2.99999V-7.15256e-06H363.78V2.99999H366.78ZM394.74 2.99999H397.74V-7.15256e-06H394.74V2.99999ZM394.74 93V96H397.74V93H394.74ZM366.78 93H363.78V96H366.78V93ZM366.78 5.99999H394.74V-7.15256e-06H366.78V5.99999ZM391.74 2.99999V93H397.74V2.99999H391.74ZM394.74 90H366.78V96H394.74V90ZM369.78 93V2.99999H363.78V93H369.78ZM488.857 38.16H491.857V35.16H488.857V38.16ZM488.857 57.84V60.84H491.857V57.84H488.857ZM422.017 57.84H419.017V60.84H422.017V57.84ZM422.017 38.16V35.16H419.017V38.16H422.017ZM441.097 48L444.058 48.4799L444.136 48L444.058 47.5201L441.097 48ZM435.457 82.8L433.228 84.8081L437.417 89.4574L438.418 83.2799L435.457 82.8ZM424.537 70.68V67.68H417.796L422.308 72.6881L424.537 70.68ZM493.057 70.68H496.057V67.68H493.057V70.68ZM493.057 93V96H496.057V93H493.057ZM407.737 93L404.77 92.5569L404.256 96H407.737V93ZM414.457 48L417.424 48.4431L417.49 48L417.424 47.5569L414.457 48ZM407.737 2.99999V-7.15256e-06H404.256L404.77 3.44308L407.737 2.99999ZM492.457 2.99999H495.457V-7.15256e-06H492.457V2.99999ZM492.457 25.32V28.32H495.457V25.32H492.457ZM424.537 25.32L422.308 23.3119L417.796 28.32H424.537V25.32ZM435.457 13.2L438.418 12.7201L437.417 6.54259L433.228 11.1919L435.457 13.2ZM485.857 38.16V57.84H491.857V38.16H485.857ZM488.857 54.84H422.017V60.84H488.857V54.84ZM425.017 57.84V38.16H419.017V57.84H425.017ZM422.017 41.16H488.857V35.16H422.017V41.16ZM438.136 47.5201L432.496 82.3201L438.418 83.2799L444.058 48.4799L438.136 47.5201ZM437.686 80.7919L426.766 68.6719L422.308 72.6881L433.228 84.8081L437.686 80.7919ZM424.537 73.68H493.057V67.68H424.537V73.68ZM490.057 70.68V93H496.057V70.68H490.057ZM493.057 90H407.737V96H493.057V90ZM410.704 93.4431L417.424 48.4431L411.49 47.5569L404.77 92.5569L410.704 93.4431ZM417.424 47.5569L410.704 2.55691L404.77 3.44308L411.49 48.4431L417.424 47.5569ZM407.737 5.99999H492.457V-7.15256e-06H407.737V5.99999ZM489.457 2.99999V25.32H495.457V2.99999H489.457ZM492.457 22.32H424.537V28.32H492.457V22.32ZM426.766 27.3281L437.686 15.2081L433.228 11.1919L422.308 23.3119L426.766 27.3281ZM432.496 13.6799L438.136 48.4799L444.058 47.5201L438.418 12.7201L432.496 13.6799ZM504.305 47.52L501.598 46.2274L499.548 50.52H504.305V47.52ZM517.025 20.88L519.985 20.3925L518.433 10.9687L514.318 19.5874L517.025 20.88ZM518.705 31.08V34.08H522.24L521.665 30.5924L518.705 31.08ZM511.025 29.16L509.468 31.7244L509.521 31.7567L509.576 31.7867L511.025 29.16ZM505.625 23.76L503.02 25.2484L503.04 25.2829L503.061 25.3169L505.625 23.76ZM505.625 8.99999L503.061 7.44306L503.052 7.45678L503.044 7.47059L505.625 8.99999ZM511.025 3.72L512.514 6.32473L512.528 6.31649L512.542 6.30809L511.025 3.72ZM526.265 3.72L524.708 6.28436L524.742 6.305L524.777 6.32473L526.265 3.72ZM531.545 8.99999L528.94 10.4884L528.96 10.5229L528.981 10.5569L531.545 8.99999ZM525.185 35.88L522.717 34.1747L522.717 34.175L525.185 35.88ZM517.145 47.52V50.52H518.719L519.614 49.225L517.145 47.52ZM507.012 48.8126L519.732 22.1726L514.318 19.5874L501.598 46.2274L507.012 48.8126ZM514.065 21.3675L515.745 31.5675L521.665 30.5924L519.985 20.3925L514.065 21.3675ZM518.705 28.08C516.382 28.08 514.325 27.5544 512.474 26.5333L509.576 31.7867C512.365 33.3256 515.428 34.08 518.705 34.08V28.08ZM512.582 26.5956C510.754 25.4857 509.299 24.0312 508.19 22.2031L503.061 25.3169C504.671 27.9688 506.816 30.1143 509.468 31.7244L512.582 26.5956ZM508.23 22.2716C507.223 20.5098 506.705 18.5473 506.705 16.32H500.705C500.705 19.5326 501.467 22.5302 503.02 25.2484L508.23 22.2716ZM506.705 16.32C506.705 14.0918 507.223 12.1881 508.206 10.5294L503.044 7.47059C501.467 10.1319 500.705 13.1082 500.705 16.32H506.705ZM508.19 10.5569C509.29 8.74461 510.722 7.34821 512.514 6.32473L509.537 1.11527C506.848 2.65178 504.68 4.77538 503.061 7.44306L508.19 10.5569ZM512.542 6.30809C514.383 5.22918 516.416 4.68 518.705 4.68V-1.32C515.395 -1.32 512.307 -0.509186 509.508 1.1319L512.542 6.30809ZM518.705 4.68C520.995 4.68 522.97 5.22895 524.708 6.28436L527.822 1.15564C525.08 -0.508957 522.015 -1.32 518.705 -1.32V4.68ZM524.777 6.32473C526.552 7.33896 527.926 8.71351 528.94 10.4884L534.15 7.51158C532.604 4.80648 530.459 2.66103 527.754 1.11527L524.777 6.32473ZM528.981 10.5569C530.036 12.2952 530.585 14.2699 530.585 16.56H536.585C536.585 13.25 535.774 10.1847 534.109 7.44306L528.981 10.5569ZM530.585 16.56C530.585 18.6189 530.07 20.9709 528.912 23.6493L534.419 26.0307C535.82 22.7891 536.585 19.6211 536.585 16.56H530.585ZM528.912 23.6493C527.744 26.3499 525.708 29.8458 522.717 34.1747L527.653 37.5853C530.742 33.1142 533.027 29.2501 534.419 26.0307L528.912 23.6493ZM522.717 34.175L514.677 45.815L519.614 49.225L527.654 37.585L522.717 34.175ZM517.145 44.52H504.305V50.52H517.145V44.52ZM540.254 63.48V60.48H537.176L537.255 63.5569L540.254 63.48ZM568.574 63.48L571.539 63.0238L571.147 60.48H568.574V63.48ZM571.574 69L569.505 71.1724L569.557 71.2228L569.613 71.2705L571.574 69ZM578.654 72.6L577.799 75.4756L577.835 75.4863L577.871 75.4961L578.654 72.6ZM601.934 71.88L600.795 69.1045L600.782 69.1097L600.769 69.1151L601.934 71.88ZM603.974 61.56L602.284 64.0387L602.323 64.0655L602.363 64.091L603.974 61.56ZM593.534 59.16L593.284 62.1496L593.294 62.1504L593.304 62.1512L593.534 59.16ZM577.694 57.84L577.943 54.8504L577.929 54.8492L577.915 54.8482L577.694 57.84ZM549.494 49.44L547.592 51.7604L547.61 51.7748L547.627 51.7889L549.494 49.44ZM546.494 14.28L548.757 16.2496L548.765 16.2393L548.774 16.229L546.494 14.28ZM562.214 4.32L563.162 7.16605L562.214 4.32ZM609.374 4.67999L608.346 7.49842L608.356 7.50224L609.374 4.67999ZM625.694 15.24L623.438 17.2183L623.457 17.2393L623.476 17.26L625.694 15.24ZM632.414 30.96V33.96H635.62L635.407 30.7604L632.414 30.96ZM604.094 30.96L601.142 31.4967L601.59 33.96H604.094V30.96ZM601.334 26.4L599.274 28.581L599.336 28.6397L599.401 28.6947L601.334 26.4ZM595.094 23.28L595.861 20.3799L595.094 23.28ZM573.494 24L572.366 21.2198L572.353 21.2252L572.34 21.2308L573.494 24ZM571.694 33.72L570.029 36.2161L570.056 36.2338L570.083 36.251L571.694 33.72ZM581.294 36L581.036 38.9889L581.046 38.9898L581.294 36ZM598.694 37.44L598.446 40.4298L598.459 40.4308L598.472 40.4318L598.694 37.44ZM619.574 41.52L618.474 44.3112L618.499 44.3212L618.525 44.3307L619.574 41.52ZM631.214 49.8L628.735 51.49L628.744 51.5033L628.753 51.5165L631.214 49.8ZM629.054 79.8L631.396 81.6741L631.404 81.6647L631.411 81.6552L629.054 79.8ZM612.854 91.08L613.928 93.8809L613.937 93.8776L613.946 93.8742L612.854 91.08ZM563.534 91.08L562.501 93.8966L563.534 91.08ZM546.614 80.04L544.328 81.9829L544.336 81.9924L544.344 82.0019L546.614 80.04ZM540.254 66.48H568.574V60.48H540.254V66.48ZM565.608 63.9362C566.04 66.7392 567.396 69.1647 569.505 71.1724L573.643 66.8276C572.391 65.6353 571.747 64.3808 571.539 63.0238L565.608 63.9362ZM569.613 71.2705C571.781 73.1435 574.558 74.5123 577.799 75.4756L579.508 69.7244C576.829 68.9277 574.886 67.8965 573.534 66.7295L569.613 71.2705ZM577.871 75.4961C581.15 76.3823 584.905 76.8 589.094 76.8V70.8C585.282 70.8 582.077 70.4177 579.436 69.7039L577.871 75.4961ZM589.094 76.8C594.78 76.8 599.522 76.1504 603.098 74.6449L600.769 69.1151C598.265 70.1696 594.447 70.8 589.094 70.8V76.8ZM603.072 74.6555C604.948 73.8858 606.601 72.8138 607.791 71.3182C609.017 69.7773 609.614 67.9593 609.614 66H603.614C603.614 66.6807 603.43 67.1627 603.096 67.5818C602.727 68.0462 602.039 68.5942 600.795 69.1045L603.072 74.6555ZM609.614 66C609.614 62.9823 608.073 60.6128 605.584 59.029L602.363 64.091C603.394 64.7472 603.614 65.3377 603.614 66H609.614ZM605.664 59.0813C604.335 58.1756 602.607 57.5711 600.716 57.1363C598.781 56.6914 596.451 56.3756 593.764 56.1688L593.304 62.1512C595.816 62.3444 597.826 62.6286 599.371 62.9837C600.96 63.3489 601.852 63.7444 602.284 64.0387L605.664 59.0813ZM593.783 56.1704L577.943 54.8504L577.444 60.8296L593.284 62.1496L593.783 56.1704ZM577.915 54.8482C565.162 53.9035 556.493 51.1696 551.36 47.0911L547.627 51.7889C554.174 56.9904 564.305 59.8565 577.472 60.8318L577.915 54.8482ZM551.395 47.1196C546.38 43.0096 543.854 37.5665 543.854 30.48H537.854C537.854 39.2335 541.088 46.4304 547.592 51.7604L551.395 47.1196ZM543.854 30.48C543.854 24.6224 545.534 19.9514 548.757 16.2496L544.231 12.3104C539.933 17.2485 537.854 23.3776 537.854 30.48H543.854ZM548.774 16.229C552.108 12.3273 556.844 9.27217 563.162 7.16605L561.265 1.47395C554.143 3.84783 548.399 7.43273 544.213 12.331L548.774 16.229ZM563.162 7.16605C569.503 5.0525 577.088 3.96 585.974 3.96V-2.04C576.619 -2.04 568.364 -0.892508 561.265 1.47395L563.162 7.16605ZM585.974 3.96C594.496 3.96 601.938 5.16131 608.346 7.4984L610.401 1.86158C603.21 -0.761319 595.051 -2.04 585.974 -2.04V3.96ZM608.356 7.50224C614.857 9.8454 619.835 13.111 623.438 17.2183L627.949 13.2617C623.552 8.24903 617.651 4.47459 610.391 1.85775L608.356 7.50224ZM623.476 17.26C627.102 21.2425 629.066 25.8422 629.42 31.1596L635.407 30.7604C634.961 24.0778 632.445 18.1975 627.912 13.22L623.476 17.26ZM632.414 27.96H604.094V33.96H632.414V27.96ZM607.045 30.4233C606.586 27.8996 605.257 25.7818 603.266 24.1053L599.401 28.6947C600.45 29.5782 600.961 30.5004 601.142 31.4967L607.045 30.4233ZM603.393 24.219C601.469 22.401 598.874 21.1773 595.861 20.3799L594.326 26.1801C596.753 26.8227 598.319 27.679 599.274 28.581L603.393 24.219ZM595.861 20.3799C592.823 19.5756 589.312 19.2 585.374 19.2V25.2C588.955 25.2 591.924 25.5444 594.326 26.1801L595.861 20.3799ZM585.374 19.2C580.218 19.2 575.827 19.817 572.366 21.2198L574.621 26.7802C577.081 25.783 580.609 25.2 585.374 25.2V19.2ZM572.34 21.2308C570.592 21.959 569.037 22.9678 567.911 24.3759C566.747 25.831 566.174 27.5491 566.174 29.4H572.174C572.174 28.8509 572.32 28.469 572.596 28.1241C572.91 27.7322 573.515 27.241 574.647 26.7692L572.34 21.2308ZM566.174 29.4C566.174 32.3237 567.658 34.6352 570.029 36.2161L573.358 31.2238C572.369 30.5648 572.174 29.9963 572.174 29.4H566.174ZM570.083 36.251C572.512 37.7969 576.369 38.5866 581.036 38.9889L581.551 33.0111C576.938 32.6134 574.395 31.8831 573.304 31.189L570.083 36.251ZM581.046 38.9898L598.446 40.4298L598.941 34.4502L581.541 33.0102L581.046 38.9898ZM598.472 40.4318C606.952 41.0599 613.582 42.3839 618.474 44.3112L620.673 38.7288C615.006 36.4961 607.715 35.1001 598.915 34.4482L598.472 40.4318ZM618.525 44.3307C623.5 46.187 626.786 48.6317 628.735 51.49L633.692 48.11C630.841 43.9283 626.367 40.853 620.622 38.7093L618.525 44.3307ZM628.753 51.5165C630.721 54.3364 631.814 58.0543 631.814 62.88H637.814C637.814 57.1456 636.507 52.1436 633.674 48.0835L628.753 51.5165ZM631.814 62.88C631.814 68.6294 630.106 73.6109 626.696 77.9448L631.411 81.6552C635.681 76.2291 637.814 69.9306 637.814 62.88H631.814ZM626.711 77.9259C623.264 82.2346 618.337 85.7162 611.762 88.2858L613.946 93.8742C621.291 91.0038 627.163 86.9654 631.396 81.6741L626.711 77.9259ZM611.779 88.2791C605.318 90.7583 597.618 92.04 588.614 92.04V98.04C598.17 98.04 606.629 96.6817 613.928 93.8809L611.779 88.2791ZM588.614 92.04C579.364 92.04 571.367 90.7568 564.566 88.2634L562.501 93.8966C570.101 96.6832 578.823 98.04 588.614 98.04V92.04ZM564.566 88.2634C557.736 85.7589 552.562 82.334 548.883 78.0781L544.344 82.0019C548.825 87.186 554.931 91.1211 562.501 93.8966L564.566 88.2634ZM548.899 78.0971C545.259 73.8141 543.395 68.951 543.253 63.4031L537.255 63.5569C537.432 70.489 539.808 76.6659 544.328 81.9829L548.899 78.0971ZM703.647 2.99999H706.647V-7.15256e-06H703.647V2.99999ZM703.647 80.64L701.536 82.7714L706.647 87.8339V80.64H703.647ZM691.047 68.16V65.16H683.755L688.936 70.2914L691.047 68.16ZM758.127 68.16H761.127V65.16H758.127V68.16ZM758.127 93V96H761.127V93H758.127ZM675.687 93H672.687V96H675.687V93ZM675.687 2.99999V-7.15256e-06H672.687V2.99999H675.687ZM700.647 2.99999V80.64H706.647V2.99999H700.647ZM705.758 78.5086L693.158 66.0285L688.936 70.2914L701.536 82.7714L705.758 78.5086ZM691.047 71.16H758.127V65.16H691.047V71.16ZM755.127 68.16V93H761.127V68.16H755.127ZM758.127 90H675.687V96H758.127V90ZM678.687 93V2.99999H672.687V93H678.687ZM675.687 5.99999H703.647V-7.15256e-06H675.687V5.99999ZM787.822 76.8H784.822V79.8H787.822V76.8ZM787.822 54.48V51.48H784.822V54.48H787.822ZM849.502 54.48H852.502V51.48H849.502V54.48ZM849.502 76.8V79.8H852.502V76.8H849.502ZM837.622 2.99999L840.36 1.77345L839.565 -7.15256e-06H837.622V2.99999ZM877.942 93V96H882.573L880.68 91.7735L877.942 93ZM848.062 93L845.295 94.1596L846.067 96H848.062V93ZM815.422 15.12V12.12H810.912L812.655 16.2796L815.422 15.12ZM822.982 15.12L825.747 16.2832L827.499 12.12H822.982V15.12ZM790.222 93V96H792.215L792.987 94.1632L790.222 93ZM760.462 93L757.723 91.7765L755.836 96H760.462V93ZM800.662 2.99999V-7.15256e-06H798.716L797.923 1.7765L800.662 2.99999ZM790.822 76.8V54.48H784.822V76.8H790.822ZM787.822 57.48H849.502V51.48H787.822V57.48ZM846.502 54.48V76.8H852.502V54.48H846.502ZM849.502 73.8H787.822V79.8H849.502V73.8ZM834.884 4.22653L875.204 94.2265L880.68 91.7735L840.36 1.77345L834.884 4.22653ZM877.942 90H848.062V96H877.942V90ZM850.829 91.8404L818.189 13.9604L812.655 16.2796L845.295 94.1596L850.829 91.8404ZM815.422 18.12H822.982V12.12H815.422V18.12ZM820.217 13.9568L787.457 91.8368L792.987 94.1632L825.747 16.2832L820.217 13.9568ZM790.222 90H760.462V96H790.222V90ZM763.201 94.2235L803.401 4.22349L797.923 1.7765L757.723 91.7765L763.201 94.2235ZM800.662 5.99999H837.622V-7.15256e-06H800.662V5.99999ZM992.43 80.88L992.472 83.8797L996.523 83.8218L995.286 79.9644L992.43 80.88ZM984.03 81L981.129 80.2326L980.118 84.0562L984.072 83.9997L984.03 81ZM1004.67 2.99999V-7.15256e-06H1002.36L1001.77 2.23256L1004.67 2.99999ZM1034.19 2.99999L1037.07 3.84441L1038.2 -7.15256e-06H1034.19V2.99999ZM1007.79 93V96H1010.04L1010.67 93.8444L1007.79 93ZM971.91 93L969.06 93.9391L969.74 96H971.91V93ZM947.19 18V15H943.042L944.34 18.9391L947.19 18ZM958.349 18L961.199 18.9391L962.497 15H958.349V18ZM933.63 93V96H935.799L936.479 93.9391L933.63 93ZM897.75 93L894.871 93.8444L895.503 96H897.75V93ZM871.349 2.99999V-7.15256e-06H867.343L868.471 3.84441L871.349 2.99999ZM900.99 2.99999L903.889 2.23146L903.298 -7.15256e-06H900.99V2.99999ZM921.63 80.88L921.586 83.8797L925.543 83.937L924.529 80.1115L921.63 80.88ZM913.349 80.76L910.49 79.8511L909.267 83.7011L913.306 83.7597L913.349 80.76ZM938.07 2.99999V-7.15256e-06H935.875L935.211 2.09111L938.07 2.99999ZM967.469 2.99999L970.326 2.08439L969.658 -7.15256e-06H967.469V2.99999ZM992.387 77.8803L983.987 78.0003L984.072 83.9997L992.472 83.8797L992.387 77.8803ZM986.93 81.7674L1007.57 3.76743L1001.77 2.23256L981.129 80.2326L986.93 81.7674ZM1004.67 5.99999H1034.19V-7.15256e-06H1004.67V5.99999ZM1031.31 2.15557L1004.91 92.1556L1010.67 93.8444L1037.07 3.84441L1031.31 2.15557ZM1007.79 90H971.91V96H1007.79V90ZM974.759 92.0609L950.039 17.0609L944.34 18.9391L969.06 93.9391L974.759 92.0609ZM947.19 21H958.349V15H947.19V21ZM955.5 17.0609L930.78 92.0609L936.479 93.9391L961.199 18.9391L955.5 17.0609ZM933.63 90H897.75V96H933.63V90ZM900.628 92.1556L874.228 2.15557L868.471 3.84441L894.871 93.8444L900.628 92.1556ZM871.349 5.99999H900.99V-7.15256e-06H871.349V5.99999ZM898.09 3.76853L918.73 81.6485L924.529 80.1115L903.889 2.23146L898.09 3.76853ZM921.673 77.8803L913.393 77.7603L913.306 83.7597L921.586 83.8797L921.673 77.8803ZM916.208 81.6689L940.929 3.90887L935.211 2.09111L910.49 79.8511L916.208 81.6689ZM938.07 5.99999H967.469V-7.15256e-06H938.07V5.99999ZM964.613 3.9156L989.573 81.7956L995.286 79.9644L970.326 2.08439L964.613 3.9156ZM1036.89 63.48V60.48H1033.82L1033.9 63.5569L1036.89 63.48ZM1065.21 63.48L1068.18 63.0238L1067.79 60.48H1065.21V63.48ZM1068.21 69L1066.15 71.1724L1066.2 71.2228L1066.25 71.2705L1068.21 69ZM1075.29 72.6L1074.44 75.4756L1074.48 75.4863L1074.51 75.4961L1075.29 72.6ZM1098.57 71.88L1097.44 69.1045L1097.42 69.1097L1097.41 69.1151L1098.57 71.88ZM1100.61 61.56L1098.92 64.0387L1098.96 64.0655L1099 64.091L1100.61 61.56ZM1090.17 59.16L1089.93 62.1496L1089.93 62.1504L1089.94 62.1512L1090.17 59.16ZM1074.33 57.84L1074.58 54.8504L1074.57 54.8492L1074.56 54.8482L1074.33 57.84ZM1046.13 49.44L1044.23 51.7604L1044.25 51.7748L1044.27 51.7889L1046.13 49.44ZM1043.13 14.28L1045.4 16.2496L1045.41 16.2393L1045.41 16.229L1043.13 14.28ZM1058.85 4.32L1059.8 7.16605L1058.85 4.32ZM1106.01 4.67999L1104.99 7.49842L1105 7.50224L1106.01 4.67999ZM1122.33 15.24L1120.08 17.2183L1120.1 17.2393L1120.12 17.26L1122.33 15.24ZM1129.05 30.96V33.96H1132.26L1132.05 30.7604L1129.05 30.96ZM1100.73 30.96L1097.78 31.4967L1098.23 33.96H1100.73V30.96ZM1097.97 26.4L1095.91 28.581L1095.98 28.6397L1096.04 28.6947L1097.97 26.4ZM1091.73 23.28L1092.5 20.3799L1091.73 23.28ZM1070.13 24L1069.01 21.2198L1068.99 21.2252L1068.98 21.2308L1070.13 24ZM1068.33 33.72L1066.67 36.2161L1066.7 36.2338L1066.72 36.251L1068.33 33.72ZM1077.93 36L1077.68 38.9889L1077.69 38.9898L1077.93 36ZM1095.33 37.44L1095.09 40.4298L1095.1 40.4308L1095.11 40.4318L1095.33 37.44ZM1116.21 41.52L1115.11 44.3112L1115.14 44.3212L1115.17 44.3307L1116.21 41.52ZM1127.85 49.8L1125.38 51.49L1125.38 51.5033L1125.39 51.5165L1127.85 49.8ZM1125.69 79.8L1128.04 81.6741L1128.04 81.6647L1128.05 81.6552L1125.69 79.8ZM1109.49 91.08L1110.57 93.8809L1110.58 93.8776L1110.59 93.8742L1109.49 91.08ZM1060.17 91.08L1059.14 93.8966L1060.17 91.08ZM1043.25 80.04L1040.97 81.9829L1040.98 81.9924L1040.98 82.0019L1043.25 80.04ZM1036.89 66.48H1065.21V60.48H1036.89V66.48ZM1062.25 63.9362C1062.68 66.7392 1064.04 69.1647 1066.15 71.1724L1070.28 66.8276C1069.03 65.6353 1068.39 64.3808 1068.18 63.0238L1062.25 63.9362ZM1066.25 71.2705C1068.42 73.1435 1071.2 74.5123 1074.44 75.4756L1076.15 69.7244C1073.47 68.9277 1071.53 67.8965 1070.18 66.7295L1066.25 71.2705ZM1074.51 75.4961C1077.79 76.3823 1081.55 76.8 1085.73 76.8V70.8C1081.92 70.8 1078.72 70.4177 1076.08 69.7039L1074.51 75.4961ZM1085.73 76.8C1091.42 76.8 1096.16 76.1504 1099.74 74.6449L1097.41 69.1151C1094.91 70.1696 1091.09 70.8 1085.73 70.8V76.8ZM1099.71 74.6555C1101.59 73.8858 1103.24 72.8138 1104.43 71.3182C1105.66 69.7773 1106.25 67.9593 1106.25 66H1100.25C1100.25 66.6807 1100.07 67.1627 1099.74 67.5818C1099.37 68.0462 1098.68 68.5942 1097.44 69.1045L1099.71 74.6555ZM1106.25 66C1106.25 62.9823 1104.71 60.6128 1102.22 59.029L1099 64.091C1100.03 64.7472 1100.25 65.3377 1100.25 66H1106.25ZM1102.3 59.0813C1100.98 58.1756 1099.25 57.5711 1097.36 57.1363C1095.42 56.6914 1093.09 56.3756 1090.4 56.1688L1089.94 62.1512C1092.46 62.3444 1094.47 62.6286 1096.01 62.9837C1097.6 63.3489 1098.49 63.7444 1098.92 64.0387L1102.3 59.0813ZM1090.42 56.1704L1074.58 54.8504L1074.09 60.8296L1089.93 62.1496L1090.42 56.1704ZM1074.56 54.8482C1061.8 53.9035 1053.13 51.1696 1048 47.0911L1044.27 51.7889C1050.81 56.9904 1060.95 59.8565 1074.11 60.8318L1074.56 54.8482ZM1048.04 47.1196C1043.02 43.0096 1040.49 37.5665 1040.49 30.48H1034.49C1034.49 39.2335 1037.73 46.4304 1044.23 51.7604L1048.04 47.1196ZM1040.49 30.48C1040.49 24.6224 1042.18 19.9514 1045.4 16.2496L1040.87 12.3104C1036.57 17.2485 1034.49 23.3776 1034.49 30.48H1040.49ZM1045.41 16.229C1048.75 12.3273 1053.48 9.27217 1059.8 7.16605L1057.91 1.47395C1050.78 3.84783 1045.04 7.43273 1040.85 12.331L1045.41 16.229ZM1059.8 7.16605C1066.14 5.0525 1073.73 3.96 1082.61 3.96V-2.04C1073.26 -2.04 1065 -0.892508 1057.91 1.47395L1059.8 7.16605ZM1082.61 3.96C1091.14 3.96 1098.58 5.16131 1104.99 7.4984L1107.04 1.86158C1099.85 -0.761319 1091.69 -2.04 1082.61 -2.04V3.96ZM1105 7.50224C1111.5 9.8454 1116.48 13.111 1120.08 17.2183L1124.59 13.2617C1120.19 8.24903 1114.29 4.47459 1107.03 1.85775L1105 7.50224ZM1120.12 17.26C1123.74 21.2425 1125.71 25.8422 1126.06 31.1596L1132.05 30.7604C1131.6 24.0778 1129.09 18.1975 1124.55 13.22L1120.12 17.26ZM1129.05 27.96H1100.73V33.96H1129.05V27.96ZM1103.69 30.4233C1103.23 27.8996 1101.9 25.7818 1099.91 24.1053L1096.04 28.6947C1097.09 29.5782 1097.6 30.5004 1097.78 31.4967L1103.69 30.4233ZM1100.03 24.219C1098.11 22.401 1095.51 21.1773 1092.5 20.3799L1090.97 26.1801C1093.39 26.8227 1094.96 27.679 1095.91 28.581L1100.03 24.219ZM1092.5 20.3799C1089.46 19.5756 1085.95 19.2 1082.01 19.2V25.2C1085.6 25.2 1088.56 25.5444 1090.97 26.1801L1092.5 20.3799ZM1082.01 19.2C1076.86 19.2 1072.47 19.817 1069.01 21.2198L1071.26 26.7802C1073.72 25.783 1077.25 25.2 1082.01 25.2V19.2ZM1068.98 21.2308C1067.23 21.959 1065.68 22.9678 1064.55 24.3759C1063.39 25.831 1062.81 27.5491 1062.81 29.4H1068.81C1068.81 28.8509 1068.96 28.469 1069.24 28.1241C1069.55 27.7322 1070.16 27.241 1071.29 26.7692L1068.98 21.2308ZM1062.81 29.4C1062.81 32.3237 1064.3 34.6352 1066.67 36.2161L1070 31.2238C1069.01 30.5648 1068.81 29.9963 1068.81 29.4H1062.81ZM1066.72 36.251C1069.15 37.7969 1073.01 38.5866 1077.68 38.9889L1078.19 33.0111C1073.58 32.6134 1071.04 31.8831 1069.94 31.189L1066.72 36.251ZM1077.69 38.9898L1095.09 40.4298L1095.58 34.4502L1078.18 33.0102L1077.69 38.9898ZM1095.11 40.4318C1103.59 41.0599 1110.22 42.3839 1115.11 44.3112L1117.31 38.7288C1111.65 36.4961 1104.36 35.1001 1095.56 34.4482L1095.11 40.4318ZM1115.17 44.3307C1120.14 46.187 1123.43 48.6317 1125.38 51.49L1130.33 48.11C1127.48 43.9283 1123.01 40.853 1117.26 38.7093L1115.17 44.3307ZM1125.39 51.5165C1127.36 54.3364 1128.45 58.0543 1128.45 62.88H1134.45C1134.45 57.1456 1133.15 52.1436 1130.31 48.0835L1125.39 51.5165ZM1128.45 62.88C1128.45 68.6294 1126.75 73.6109 1123.34 77.9448L1128.05 81.6552C1132.32 76.2291 1134.45 69.9306 1134.45 62.88H1128.45ZM1123.35 77.9259C1119.9 82.2346 1114.98 85.7162 1108.4 88.2858L1110.59 93.8742C1117.93 91.0038 1123.8 86.9654 1128.04 81.6741L1123.35 77.9259ZM1108.42 88.2791C1101.96 90.7583 1094.26 92.04 1085.25 92.04V98.04C1094.81 98.04 1103.27 96.6817 1110.57 93.8809L1108.42 88.2791ZM1085.25 92.04C1076 92.04 1068.01 90.7568 1061.21 88.2634L1059.14 93.8966C1066.74 96.6832 1075.46 98.04 1085.25 98.04V92.04ZM1061.21 88.2634C1054.38 85.7589 1049.2 82.334 1045.52 78.0781L1040.98 82.0019C1045.47 87.186 1051.57 91.1211 1059.14 93.8966L1061.21 88.2634ZM1045.54 78.0971C1041.9 73.8141 1040.04 68.951 1039.89 63.4031L1033.9 63.5569C1034.07 70.489 1036.45 76.6659 1040.97 81.9829L1045.54 78.0971Z" fill="#F0EDEE" mask="url(#path-1-outside-1_388_44811)"/>
</svg>
