<svg width="143" height="87" viewBox="0 0 143 87" fill="none" xmlns="http://www.w3.org/2000/svg">
<path d="M30.634 50.812C24.64 50.812 19.386 49.776 14.872 47.704C10.358 45.632 6.806 42.709 4.216 38.935C1.7 35.087 0.442 30.647 0.442 25.615C0.442 20.657 1.7 16.291 4.216 12.517C6.806 8.74299 10.358 5.81999 14.872 3.74799C19.46 1.67599 24.714 0.639994 30.634 0.639994C36.702 0.639994 41.993 1.67599 46.507 3.74799C51.021 5.81999 54.536 8.74299 57.052 12.517C59.568 16.291 60.826 20.657 60.826 25.615C60.826 30.647 59.568 35.087 57.052 38.935C54.536 42.709 51.021 45.632 46.507 47.704C41.993 49.776 36.702 50.812 30.634 50.812ZM30.634 36.382C33.964 36.382 36.554 35.457 38.404 33.607C40.254 31.683 41.179 29.056 41.179 25.726C41.179 22.322 40.254 19.695 38.404 17.845C36.628 15.921 34.075 14.959 30.745 14.959C27.341 14.959 24.714 15.921 22.864 17.845C21.088 19.695 20.2 22.322 20.2 25.726C20.2 29.056 21.088 31.683 22.864 33.607C24.714 35.457 27.304 36.382 30.634 36.382ZM111.886 86.998C105.892 86.998 100.601 85.962 96.013 83.89C91.499 81.818 87.984 78.895 85.468 75.121C82.952 71.273 81.694 66.87 81.694 61.912C81.694 56.88 82.952 52.477 85.468 48.703C87.984 44.929 91.536 42.006 96.124 39.934C100.712 37.862 105.966 36.826 111.886 36.826C117.954 36.826 123.245 37.862 127.759 39.934C132.273 42.006 135.788 44.929 138.304 48.703C140.82 52.477 142.078 56.88 142.078 61.912C142.078 66.87 140.82 71.273 138.304 75.121C135.788 78.895 132.273 81.818 127.759 83.89C123.245 85.962 117.954 86.998 111.886 86.998ZM111.886 72.568C115.216 72.568 117.806 71.643 119.656 69.793C121.506 67.943 122.431 65.316 122.431 61.912C122.431 58.582 121.506 55.955 119.656 54.031C117.88 52.107 115.29 51.145 111.886 51.145C108.556 51.145 105.966 52.107 104.116 54.031C102.34 55.955 101.452 58.582 101.452 61.912C101.452 65.316 102.34 67.943 104.116 69.793C105.966 71.643 108.556 72.568 111.886 72.568ZM84.802 1.74999H103.228L57.718 85H39.403L84.802 1.74999Z" fill="url(#paint0_linear_295_14075)" fill-opacity="0.9"/>
<defs>
<linearGradient id="paint0_linear_295_14075" x1="0.310833" y1="47.0098" x2="145.868" y2="46.9835" gradientUnits="userSpaceOnUse">
<stop stop-color="#0439C2"/>
<stop offset="0.473958" stop-color="#1FA1D8"/>
<stop offset="1" stop-color="#15E6CD"/>
</linearGradient>
</defs>
</svg>
