<svg width="158" height="162" viewBox="0 0 158 162" fill="none" xmlns="http://www.w3.org/2000/svg">
<g id="squares">
<path fill-rule="evenodd" clip-rule="evenodd" d="M29.5543 42.7766L70.2383 36.886L75.3838 72.4237L34.6998 78.3143L29.5543 42.7766ZM32.0171 44.6877L68.4186 39.4172L72.9209 70.5126L36.5194 75.7832L32.0171 44.6877Z" fill="#0A0A0A"/>
<path fill-rule="evenodd" clip-rule="evenodd" d="M24.6286 38.9545L32.3468 92.261L90.1609 83.8902L82.4427 30.5836L24.6286 38.9545ZM80.623 33.1147L27.0914 40.8656L34.1665 89.7299L87.6981 81.9791L80.623 33.1147Z" fill="#0A0A0A"/>
<path fill-rule="evenodd" clip-rule="evenodd" d="M19.7029 35.1323L94.6471 24.2812L104.938 95.3566L29.9938 106.208L19.7029 35.1323ZM22.1657 37.0434L92.8274 26.8123L102.475 93.4455L31.8135 103.677L22.1657 37.0434Z" fill="#0A0A0A"/>
<path fill-rule="evenodd" clip-rule="evenodd" d="M14.7771 31.3102L27.6409 120.154L117.574 107.133L104.71 18.2888L14.7771 31.3102ZM102.891 20.82L17.24 33.2213L29.4605 117.623L115.111 105.222L102.891 20.82Z" fill="#0A0A0A"/>
<path fill-rule="evenodd" clip-rule="evenodd" d="M9.85143 27.488L114.773 12.2964L130.21 118.91L25.2879 134.101L9.85143 27.488ZM12.3143 29.3991L112.954 14.8276L127.747 116.998L27.1076 131.57L12.3143 29.3991Z" fill="#0A0A0A"/>
<path fill-rule="evenodd" clip-rule="evenodd" d="M4.92571 23.6659L22.9349 148.048L142.846 130.686L124.836 6.30407L4.92571 23.6659ZM123.017 8.83521L7.38857 25.577L24.7546 145.517L140.383 128.775L123.017 8.83521Z" fill="#0A0A0A"/>
<path fill-rule="evenodd" clip-rule="evenodd" d="M0 19.8438L20.5819 161.995L157.623 142.152L137.041 0.00166659L0 19.8438ZM135.221 2.5328L2.46286 21.7548L22.4016 159.463L155.16 140.241L135.221 2.5328Z" fill="#0A0A0A"/>
</g>
</svg>
