<svg width="187" height="163" viewBox="0 0 187 163" fill="none" xmlns="http://www.w3.org/2000/svg">
<g id="Group 76">
<path id="Ellipse 73" d="M175.439 64.6218C181.507 100.002 158.527 133.718 124.141 139.951C89.7558 146.184 56.9436 122.581 50.8752 87.201C44.8067 51.8208 67.7875 18.1047 102.173 11.8718C136.558 5.6389 169.37 29.2416 175.439 64.6218Z" stroke="#0A0A0A"/>
<path id="Ellipse 74" d="M162.779 71.6769C168.411 104.511 147.084 135.8 115.175 141.584C83.2657 147.368 52.815 125.465 47.1832 92.6306C41.5513 59.7961 62.8786 28.5077 94.7876 22.7237C126.697 16.9396 157.147 38.8424 162.779 71.6769Z" stroke="#0A0A0A"/>
<path id="Ellipse 75" d="M150.118 78.7204C155.313 109.009 135.639 137.87 106.206 143.205C76.7737 148.54 48.6844 128.337 43.4892 98.0485C38.294 67.7597 57.9678 38.8989 87.4004 33.5638C116.833 28.2286 144.922 48.4316 150.118 78.7204Z" stroke="#0A0A0A"/>
<path id="Ellipse 76" d="M137.456 85.7638C142.214 113.507 124.194 139.94 97.2379 144.826C70.2816 149.713 44.5538 131.209 39.7953 103.466C35.0367 75.7234 53.057 49.2902 80.0133 44.4039C106.97 39.5176 132.697 58.0208 137.456 85.7638Z" stroke="#0A0A0A"/>
<path id="Ellipse 77" d="M124.796 92.8189C129.118 118.016 112.751 142.022 88.2715 146.459C63.7915 150.897 40.4252 134.093 36.1033 108.896C31.7814 83.6987 48.1481 59.6931 72.6281 55.2557C97.108 50.8183 120.474 67.6216 124.796 92.8189Z" stroke="#0A0A0A"/>
<path id="Ellipse 78" d="M112.135 99.8624C116.02 122.514 101.307 144.092 79.303 148.08C57.2995 152.069 36.2946 136.965 32.4093 114.314C28.5241 91.6623 43.2373 70.0843 65.2409 66.0958C87.2444 62.1073 108.249 77.2108 112.135 99.8624Z" stroke="#0A0A0A"/>
<path id="Ellipse 79" d="M99.4749 106.918C102.923 127.023 89.8638 146.174 70.3366 149.713C50.8094 153.253 32.1659 139.849 28.7174 119.743C25.2688 99.6377 38.3285 80.4873 57.8557 76.9477C77.3829 73.408 96.0263 86.8117 99.4749 106.918Z" stroke="#0A0A0A"/>
<path id="Ellipse 80" d="M86.8133 113.961C89.8252 131.521 78.419 148.244 61.3682 151.335C44.3173 154.425 28.0354 142.721 25.0234 125.161C22.0115 107.601 33.4177 90.8785 50.4685 87.7878C67.5193 84.697 83.8013 96.4009 86.8133 113.961Z" stroke="#0A0A0A"/>
<path id="Ellipse 81" d="M71.9104 121.418C74.4857 136.433 64.733 150.728 50.1586 153.37C35.5841 156.012 21.6636 146.008 19.0883 130.993C16.513 115.979 26.2657 101.684 40.8401 99.042C55.4146 96.4001 69.3351 106.404 71.9104 121.418Z" stroke="#0A0A0A"/>
<path id="Ellipse 82" d="M59.2488 128.462C61.3874 140.93 53.2883 152.798 41.1901 154.991C29.092 157.184 17.533 148.88 15.3943 136.411C13.2557 123.943 21.3549 112.075 33.453 109.882C45.5511 107.689 57.1102 115.993 59.2488 128.462Z" stroke="#0A0A0A"/>
<path id="Ellipse 83" d="M44.346 135.915C46.0479 145.838 39.6023 155.278 29.9805 157.022C20.3588 158.766 11.1612 152.162 9.45916 142.239C7.75717 132.316 14.2028 122.876 23.8246 121.132C33.4464 119.388 42.644 125.993 44.346 135.915Z" stroke="#0A0A0A"/>
<path id="Ellipse 84" d="M31.6863 142.963C32.9516 150.34 28.1595 157.352 21.0141 158.647C13.8687 159.943 7.03252 155.038 5.76717 147.661C4.50183 140.284 9.29398 133.272 16.4394 131.976C23.5848 130.681 30.4209 135.586 31.6863 142.963Z" stroke="#0A0A0A"/>
<path id="Ellipse 85" d="M19.0246 150.014C19.8533 154.845 16.7147 159.43 12.0457 160.277C7.37661 161.123 2.90193 157.918 2.07323 153.087C1.24453 148.255 4.38317 143.671 9.05222 142.824C13.7213 141.978 18.1959 145.183 19.0246 150.014Z" stroke="#0A0A0A"/>
</g>
</svg>
