<svg width="939" height="331" viewBox="0 0 939 331" fill="none" xmlns="http://www.w3.org/2000/svg">
<rect x="500" y="1" width="196" height="185" stroke="#F0EDEE" stroke-width="2"/>
<line y1="-1" x2="260.408" y2="-1" transform="matrix(0.725938 0.68776 -0.678904 0.734227 502.277 6.45312)" stroke="#F0EDEE" stroke-width="2"/>
<line y1="-1" x2="259.733" y2="-1" transform="matrix(0.72424 -0.689548 0.680709 0.732554 505.072 184.609)" stroke="#F0EDEE" stroke-width="2"/>
<rect x="712" y="1" width="226" height="316" stroke="#F0EDEE" stroke-width="2"/>
<rect x="49" y="1" width="436" height="316" stroke="#F0EDEE" stroke-width="2"/>
<rect x="500" y="203" width="196" height="114" stroke="#F0EDEE" stroke-width="2"/>
<path d="M5 136.626C5 131.155 14.4179 129.506 26.2058 126.509C66.9879 116.138 110.401 104.174 158.463 99.1079C178.296 97.0174 150.388 125.982 149.534 127.141C141.983 137.387 132.277 146.009 122.748 155.807C122.746 155.809 113.923 162.341 115.493 162.341C118.756 162.341 148.74 151.938 153.998 150.537C171.804 145.797 188.214 142.782 208.687 139.577C243.566 134.118 345.014 115.542 313.6 123.453C284.279 130.836 265.232 144.743 246.076 155.596C223.851 168.188 197.849 179.848 176.32 192.587C166.571 198.356 145.628 208.119 145.628 215.351C145.628 219.624 157.264 214.89 160.974 213.349C187.281 202.419 219.979 192.685 250.54 183.524C307.933 166.32 365.352 148.874 425.488 133.043C438.65 129.578 395.953 150.838 392.842 152.434C354.02 172.358 305.411 190.166 270.63 211.03C235.857 231.89 206.848 254.097 172.414 275.107C150.791 288.299 135.856 302.856 113.261 315.786C107.519 319.072 88.033 328.266 95.4035 325.482C139.618 308.782 189.253 291.68 242.728 279.533C270.333 273.262 294.342 263.641 321.412 258.034C332.852 255.664 326.055 256.79 321.412 258.982C295.548 271.193 274.128 287.641 254.168 301.559C246.454 306.938 244.592 312.397 234.357 317.367C231.858 318.581 242.857 315.157 244.681 314.733C268.292 309.245 333.709 290.642 316.39 298.819C308.373 302.604 296.3 303.922 296.3 309.252" stroke="url(#paint0_linear_372_23398)" stroke-opacity="0.9" stroke-width="10" stroke-linecap="round"/>
<line x1="765" y1="282" x2="886" y2="282" stroke="#F0EDEE" stroke-width="2"/>
<line x1="765" y1="258" x2="886" y2="258" stroke="#F0EDEE" stroke-width="2"/>
<line x1="765" y1="235" x2="886" y2="235" stroke="#F0EDEE" stroke-width="2"/>
<defs>
<linearGradient id="paint0_linear_372_23398" x1="11.6495" y1="216.504" x2="430.498" y2="216.313" gradientUnits="userSpaceOnUse">
<stop stop-color="#0439C2"/>
<stop offset="0.473958" stop-color="#1FA1D8"/>
<stop offset="1" stop-color="#15E6CD"/>
</linearGradient>
</defs>
</svg>
