<svg xmlns="http://www.w3.org/2000/svg" width="19" height="14" viewBox="0 0 19 14" fill="none">
  <path d="M1.42506 0C1.2362 0 1.06275 0.0464774 0.898066 0.121528L9.0698 8.35304C9.34779 8.63335 9.67564 8.63317 9.95296 8.35304L18.1094 0.121528C17.9448 0.0464774 17.764 0 17.575 0H1.42506ZM0.0223651 1.35311C0.00994005 1.43865 0 1.52274 0 1.61244V12.3879C0 12.618 0.0503629 12.8303 0.12624 13.0279L5.72236 7.09737L0.0223651 1.35311ZM18.9851 1.35311L13.3072 7.08924L18.8812 13.0277C18.9571 12.83 19 12.6177 19 12.3877V1.61218C19 1.52266 18.9974 1.43839 18.9853 1.35285L18.9851 1.35311ZM6.76867 8.15036L1.26161 13.992C1.31678 13.9993 1.36797 14 1.4248 14H17.5749C17.6319 14 17.6905 14 17.7455 13.992L12.2609 8.15036L10.925 9.49531C10.1349 10.2932 8.88743 10.2919 8.09719 9.49531L6.76867 8.15036Z" fill="#F0EDEE"/>
</svg>