<svg width="34" height="49" viewBox="0 0 34 49" fill="none" xmlns="http://www.w3.org/2000/svg">
<path id="Vector" d="M17.0008 3.80214e-06C14.137 -0.00195285 11.3192 0.751316 8.80917 2.18981C6.29918 3.62831 4.17849 5.70536 2.64416 8.22794C1.10982 10.7505 0.211639 13.6368 0.0330652 16.6185C-0.145509 19.6002 0.401324 22.5807 1.62275 25.2829C1.95964 26.0062 2.34612 26.7031 2.77918 27.3684L16.4226 48.6792C16.4857 48.7772 16.5708 48.8577 16.6705 48.9136C16.7702 48.9695 16.8814 48.9992 16.9946 49C17.1089 49.0002 17.2214 48.971 17.3222 48.9151C17.4231 48.8591 17.5092 48.7781 17.5728 48.6792L31.1055 27.5031C31.6075 26.7526 32.0537 25.9632 32.4403 25.1417C33.6336 22.4405 34.1561 19.4695 33.9596 16.5024C33.7631 13.5352 32.8541 10.6673 31.3161 8.16296C29.7782 5.65858 27.6608 3.59823 25.1591 2.17169C22.6574 0.745162 19.8518 -0.00166839 17.0008 3.80214e-06ZM17.0008 24.1022C15.7842 24.1022 14.5949 23.7258 13.5834 23.0207C12.5718 22.3156 11.7834 21.3134 11.3178 20.1408C10.8522 18.9683 10.7304 17.6781 10.9678 16.4333C11.2051 15.1885 11.791 14.0451 12.6512 13.1477C13.5115 12.2503 14.6075 11.6391 15.8007 11.3915C16.994 11.1439 18.2308 11.271 19.3548 11.7567C20.4787 12.2424 21.4394 13.0648 22.1153 14.1201C22.7912 15.1754 23.152 16.416 23.152 17.6852C23.152 19.3871 22.5039 21.0192 21.3504 22.2227C20.1968 23.4261 18.6322 24.1022 17.0008 24.1022Z" fill="black"/>
</svg>
