<svg width="43" height="58" viewBox="0 0 43 58" fill="none" xmlns="http://www.w3.org/2000/svg">
<g id="Group 13994">
<path id="Vector" d="M26.1678 24.1977V16.8397C26.1678 16.3425 25.815 15.8984 25.2908 15.7338C24.7665 15.5701 24.1808 15.7201 23.8329 16.1093L21.4999 18.7283L19.166 16.1085C18.819 15.7201 18.2333 15.5692 17.7091 15.7338C17.1848 15.8984 16.832 16.3425 16.832 16.8397V24.1977H19.42V20.1068L21.4999 22.442L23.5798 20.1068V24.1977H26.1678Z" fill="#0A0A0A"/>
<path id="Vector_2" d="M22.795 25.7617H20.207V42.2891H22.795V25.7617Z" fill="#0A0A0A"/>
<path id="Vector_3" d="M43 19.2296C43 14.0928 40.7638 9.26373 36.7027 5.6323C32.6425 2.00003 27.2433 0 21.5 0C15.7567 0 10.3575 2.00003 6.29731 5.6323C2.23616 9.26458 0 14.0936 0 19.2296C0 23.161 1.31793 26.9425 3.81193 30.1641C4.31322 30.8122 4.85574 31.4278 5.43371 32.0098C5.71071 32.3888 5.91487 32.7942 6.04139 33.2212L9.35491 44.4146C9.73639 45.704 11.0447 46.6041 12.5362 46.6041H30.4648C31.9562 46.6041 33.2636 45.704 33.646 44.4146L36.9461 33.2632C37.0794 32.8131 37.2931 32.3888 37.5807 31.9944C38.1538 31.4157 38.6906 30.8054 39.1881 30.1633C41.6821 26.9416 43 23.161 43 19.2287V19.2296ZM30.3402 43.5171H12.6598L10.3374 35.6696C11.2853 36.1848 12.2812 36.6348 13.3183 37.0172L14.6257 41.3361L17.1235 40.7318L11.8019 23.149L14.8701 22.1932L14.0189 20.0071L9.81307 21.317C9.17184 21.5168 8.8124 22.1263 8.98972 22.7127L12.0751 32.9083C9.97218 31.7484 8.152 30.2087 6.72288 28.3621C4.64103 25.6729 3.54068 22.5146 3.54068 19.2304C3.54068 10.373 11.5978 3.16678 21.501 3.16678C31.4041 3.16678 39.4612 10.373 39.4612 19.2304C39.4612 22.5146 38.3609 25.6729 36.279 28.3621C34.8499 30.2087 33.0297 31.7492 30.9268 32.9083L34.0122 22.7127C34.1023 22.4161 34.0563 22.0997 33.8847 21.8331C33.7131 21.5665 33.4304 21.3719 33.0987 21.2922L27.9794 20.0628L27.3085 22.2986L31.175 23.227L25.8774 40.7309L28.3753 41.3353L29.6827 37.0163C30.7198 36.6348 31.7156 36.1839 32.6636 35.6687L30.3412 43.5162L30.3402 43.5171Z" fill="#0A0A0A"/>
<path id="Vector_4" d="M32.6208 49.4219H10.3789V52.5089H32.6208V49.4219Z" fill="#0A0A0A"/>
<path id="Vector_5" d="M28.1958 54.9141H14.8047V58.0011H28.1958V54.9141Z" fill="#0A0A0A"/>
</g>
</svg>
