<svg width="190" height="70" viewBox="0 0 190 70" fill="none" xmlns="http://www.w3.org/2000/svg">
<path fill-rule="evenodd" clip-rule="evenodd" d="M90.7833 8.01305C86.1811 3.47274 80.0631 0.972656 73.5555 0.972656C67.0478 0.972656 60.9299 3.47274 56.3277 8.01305C51.7255 12.5533 49.1914 18.589 49.1914 25.0092C49.1914 29.9233 50.6856 34.6495 53.5104 38.6758C54.0681 39.4712 54.6828 40.2434 55.3373 40.9709C55.6333 41.4201 55.8508 41.8991 55.9832 42.3972L59.7048 56.2645C60.158 57.9553 61.7136 59.1353 63.4856 59.1353H83.6221C85.3941 59.1353 86.9497 57.9542 87.4029 56.2645L91.1095 42.4492C91.2505 41.9235 91.4776 41.4201 91.7866 40.9528C92.4347 40.2306 93.044 39.4638 93.5973 38.6758C96.4232 34.6484 97.9164 29.9233 97.9164 25.0092C97.9164 18.589 95.3822 12.5533 90.78 8.01305H90.7833ZM87.8153 29.3796C87.9315 28.9547 87.8734 28.5108 87.6505 28.1284C87.4277 27.7472 87.0681 27.4732 86.6364 27.3595L80.6789 25.7813L79.8134 28.9611L84.1561 30.1113L78.2061 51.7964L81.4271 52.6567L82.9235 47.202C83.8934 46.8037 84.8408 46.3406 85.7483 45.8234L83.3164 54.886H63.7902L61.3583 45.8234C62.2659 46.3406 63.2143 46.8026 64.1842 47.202L65.6806 52.6567L68.9016 51.7964L62.9215 29.9998L66.3815 28.8113L65.2845 25.7016L60.3572 27.3946C59.5336 27.6771 59.0675 28.549 59.2946 29.3796L62.6147 41.4817C60.4584 40.0883 58.6164 38.3147 57.1329 36.2012C54.8195 32.9045 53.5976 29.0344 53.5976 25.0092C53.5976 14.1528 62.5501 5.32073 73.5544 5.32073C84.5587 5.32073 93.5112 14.1528 93.5112 25.0092C93.5112 29.0354 92.2883 32.9056 89.9759 36.2012C88.4935 38.3147 86.6504 40.0883 84.4941 41.4817L87.8142 29.3796H87.8153ZM77.8132 20.677C77.2243 20.4742 76.5665 20.66 76.1758 21.1422L73.5555 24.3868L70.9341 21.1412C70.5444 20.66 69.8867 20.4731 69.2978 20.677C68.7089 20.881 68.3128 21.4311 68.3128 22.0471V31.1627H71.2194V26.0946L73.5555 28.9876L75.8916 26.0946V31.1627H78.7982V22.0471C78.7982 21.4311 78.402 20.881 77.8132 20.677ZM71.8869 32.8897H75.2241V53.7899H71.8869V32.8897ZM85.5954 61.1096H61.5155V64.1896H85.5954V61.1096ZM66.3793 65.9452H80.7327V69.0251H66.3793V65.9452ZM0.21875 44.242V3.41645H8.43594L21.4416 29.5452L34.388 3.41645H42.7236V44.242H36.7531V10.8817L21.3823 41.3256L5.95237 10.8817V44.242H0.21875ZM113.497 23.0879L97.6871 44.156H104.884L117.095 27.6271L129.306 44.156H136.738L120.752 23.0295L135.5 3.41645H128.304L117.213 18.4318L106.064 3.41645H98.572L113.497 23.0879ZM142.834 44.156V3.41645H149.028V44.156H142.834ZM158.34 3.41645V44.156V44.157H189.016V38.8021H164.534V26.1732H181.636V20.9935H164.534V8.77136H188.78V3.41645H158.34ZM98.0671 69.0252V51.5256H100.018V67.3004H110.584V69.0252H98.0671ZM129.342 51.5256L121.993 69.0252H124.02L126.276 63.5258H134.638L136.868 69.0252H138.996L131.698 51.5256H129.342ZM130.457 53.3003L133.953 61.8754H126.96L130.457 53.3003ZM150.133 69.0252V51.5256H157.329C158.478 51.5256 159.47 51.7094 160.307 52.0758C161.143 52.4422 161.789 52.9636 162.246 53.6381C162.702 54.3135 162.93 55.109 162.93 56.0256C162.93 56.9421 162.689 57.7089 162.208 58.3759C161.727 59.0429 161.064 59.5505 160.219 59.901C161.283 60.2175 162.123 60.7422 162.74 61.476C163.357 62.2099 163.665 63.0851 163.665 64.1015C163.665 65.1178 163.415 65.9728 162.918 66.7141C162.419 67.4554 161.718 68.0268 160.814 68.4262C159.91 68.8266 158.85 69.0262 157.634 69.0262H150.134L150.133 69.0252ZM152.083 59.1501H157.227C158.376 59.1501 159.292 58.8836 159.976 58.3504C160.661 57.8172 161.002 57.0919 161.002 56.1753C161.002 55.2588 160.66 54.5344 159.976 54.0002C159.292 53.4671 158.376 53.2005 157.227 53.2005H152.083V59.1501ZM152.083 67.3503H157.481C158.764 67.3503 159.787 67.0508 160.547 66.4507C161.307 65.8507 161.687 65.0509 161.687 64.0505C161.687 63.05 161.307 62.2503 160.547 61.6502C159.787 61.0502 158.764 60.7507 157.481 60.7507H152.083V67.3503ZM177.959 68.1882C179.243 68.7458 180.586 69.0251 181.988 69.0251L181.992 69.0262C183.325 69.0262 184.503 68.8053 185.526 68.3635C186.547 67.9217 187.345 67.3057 187.92 66.5134C188.494 65.7222 188.781 64.8173 188.781 63.8009C188.781 62.4351 188.342 61.372 187.464 60.6136C186.585 59.8553 185.174 59.3179 183.232 59.0014L180.698 58.601C179.413 58.4014 178.493 58.0849 177.935 57.6516C177.378 57.2182 177.099 56.5938 177.099 55.777C177.099 55.161 177.276 54.6236 177.631 54.1648C177.986 53.7071 178.483 53.3481 179.126 53.09C179.767 52.8319 180.51 52.7024 181.355 52.7024C183.382 52.7024 185.367 53.4278 187.31 54.8775L188.425 53.3778C187.428 52.628 186.326 52.0534 185.118 51.653C183.91 51.2527 182.664 51.053 181.431 51.053C180.197 51.053 179.112 51.258 178.174 51.6658C177.237 52.0736 176.506 52.645 175.982 53.3778C175.458 54.1117 175.196 54.9614 175.196 55.9278C175.196 57.1619 175.602 58.1359 176.413 58.8528C177.224 59.5696 178.482 60.0688 180.188 60.3524L182.747 60.7528C184.2 60.9864 185.244 61.3443 185.877 61.8276C186.511 62.3119 186.827 63.0033 186.827 63.9028C186.827 64.5698 186.625 65.1656 186.219 65.6903C185.814 66.2149 185.252 66.6238 184.534 66.9148C183.816 67.2069 182.993 67.3524 182.064 67.3524C180.915 67.3524 179.821 67.1103 178.782 66.627C177.744 66.1438 176.767 65.4184 175.855 64.4519L174.563 65.7763C175.543 66.8256 176.675 67.6296 177.959 68.1882Z" fill="#F0EDEE"/>
</svg>
