<svg xmlns="http://www.w3.org/2000/svg" width="17" height="19" viewBox="0 0 17 19" fill="none">
  <path d="M16.9288 16.5183C16.609 17.0653 16.0262 18.008 15.6162 18.3585C15.1726 18.7373 14.4833 19.0059 13.5785 18.9998C13.5764 19 13.5742 19 13.572 19C13.5685 19 13.565 19 13.5615 18.9998C13.3868 19.0014 13.2061 18.9893 13.0194 18.9622C12.9802 18.9573 12.9415 18.9535 12.9016 18.9478C11.6592 18.7685 10.5024 18.1908 9.42748 17.5209C7.93624 16.5917 6.56276 15.4642 5.33937 14.1825C3.5757 12.3981 2.10881 10.2985 1.04501 7.99438C0.503791 6.82213 0.0588318 5.57414 0.00510648 4.27592C-0.0486021 2.97771 0.327809 2.05374 0.830279 1.53298C1.30557 1.0404 2.1195 0.350214 2.9675 0.0319125C3.18117 -0.0482847 3.4201 0.0262644 3.55568 0.215176C4.52152 1.561 5.92516 4.50228 6.44472 5.87037C6.52761 6.08864 6.46101 6.3367 6.28363 6.48248C5.99123 6.72278 5.61618 6.91899 5.31186 7.06797C4.89641 7.27134 4.48033 7.57334 4.34964 8.02965C4.20729 8.52662 4.44326 9.05173 4.69158 9.49845C5.11028 10.2517 5.60453 10.9581 6.16549 11.6045C6.2628 11.7167 6.36612 11.832 6.47462 11.9486C6.47789 11.9452 6.48107 11.9417 6.48434 11.9384C6.64553 12.1184 6.81235 12.2928 6.98339 12.4626C7.66713 13.1101 8.48046 13.7032 9.29503 13.8919C10.3042 14.1255 10.8859 13.0199 11.4157 12.3021C11.5557 12.1123 11.8146 12.0705 12.0024 12.2091C12.8538 12.8376 15.1441 14.5985 16.1258 15.3711C16.3847 15.5507 16.6105 15.7092 16.7869 15.835C17.0017 15.9881 17.0637 16.2874 16.9288 16.5183Z" fill="#F0EDEE"/>
</svg>