<svg width="19" height="20" viewBox="0 0 19 20" fill="none" xmlns="http://www.w3.org/2000/svg">
<path d="M10.6442 6.52355L10.7212 6.88256L11.027 6.67929L15.4331 3.75053L12.6381 8.40967L12.4624 8.70251L12.7946 8.7815L17.9193 10L12.7946 11.2185L12.4624 11.2975L12.6381 11.5903L15.4331 16.2495L11.027 13.3207L10.7212 13.1174L10.6442 13.4765L9.5 18.8085L8.3558 13.4765L8.27876 13.1174L7.97297 13.3207L3.5669 16.2495L6.36192 11.5903L6.53759 11.2975L6.20537 11.2185L1.08074 10L6.20537 8.7815L6.53759 8.70251L6.36192 8.40967L3.5669 3.75053L7.97297 6.67929L8.27876 6.88256L8.3558 6.52355L9.5 1.19153L10.6442 6.52355Z" stroke="#0A0A0A" stroke-width="0.5"/>
</svg>
